{
	"asset":{
		"generator":"Khronos glTF Blender I/O v3.6.27",
		"version":"2.0"
	},
	"extensionsUsed":[
		"KHR_materials_specular",
		"KHR_materials_ior"
	],
	"scene":0,
	"scenes":[
		{
			"name":"Scene",
			"nodes":[
				0
			]
		}
	],
	"nodes":[
		{
			"mesh":0,
			"name":"11805_airplane_v2_L2",
			"translation":[
				0,
				-50,
				0
			]
		}
	],
	"materials":[
		{
			"doubleSided":true,
			"extensions":{
				"KHR_materials_specular":{
					"specularColorFactor":[
						0,
						0,
						0
					]
				},
				"KHR_materials_ior":{
					"ior":1.4500000476837158
				}
			},
			"name":"airplane_body",
			"pbrMetallicRoughness":{
				"baseColorFactor":[
					0.800000011920929,
					0.800000011920929,
					0.800000011920929,
					1
				],
				"metallicFactor":0
			}
		},
		{
			"doubleSided":true,
			"extensions":{
				"KHR_materials_specular":{
					"specularColorFactor":[
						0,
						0,
						0
					]
				},
				"KHR_materials_ior":{
					"ior":1.4500000476837158
				}
			},
			"name":"airplane_wings",
			"pbrMetallicRoughness":{
				"baseColorFactor":[
					0.800000011920929,
					0.800000011920929,
					0.800000011920929,
					1
				],
				"metallicFactor":0
			}
		}
	],
	"meshes":[
		{
			"name":"11805_airplane_v2_L2",
			"primitives":[
				{
					"attributes":{
						"POSITION":0,
						"NORMAL":1,
						"TEXCOORD_0":2
					},
					"indices":3,
					"material":0
				},
				{
					"attributes":{
						"POSITION":4,
						"NORMAL":5,
						"TEXCOORD_0":6
					},
					"indices":7,
					"material":1
				}
			]
		}
	],
	"accessors":[
		{
			"bufferView":0,
			"componentType":5126,
			"count":36609,
			"max":[
				319.1271057128906,
				499.906005859375,
				749.0983276367188
			],
			"min":[
				-322.0859069824219,
				29.211000442504883,
				-753.068115234375
			],
			"type":"VEC3"
		},
		{
			"bufferView":1,
			"componentType":5126,
			"count":36609,
			"type":"VEC3"
		},
		{
			"bufferView":2,
			"componentType":5126,
			"count":36609,
			"type":"VEC2"
		},
		{
			"bufferView":3,
			"componentType":5123,
			"count":177012,
			"type":"SCALAR"
		},
		{
			"bufferView":4,
			"componentType":5126,
			"count":26244,
			"max":[
				786.957275390625,
				242.61630249023438,
				400.31671142578125
			],
			"min":[
				-789.9151000976562,
				74.7311019897461,
				-165.9241943359375
			],
			"type":"VEC3"
		},
		{
			"bufferView":5,
			"componentType":5126,
			"count":26244,
			"type":"VEC3"
		},
		{
			"bufferView":6,
			"componentType":5126,
			"count":26244,
			"type":"VEC2"
		},
		{
			"bufferView":7,
			"componentType":5123,
			"count":113712,
			"type":"SCALAR"
		}
	],
	"bufferViews":[
		{
			"buffer":0,
			"byteLength":439308,
			"byteOffset":0,
			"target":34962
		},
		{
			"buffer":0,
			"byteLength":439308,
			"byteOffset":439308,
			"target":34962
		},
		{
			"buffer":0,
			"byteLength":292872,
			"byteOffset":878616,
			"target":34962
		},
		{
			"buffer":0,
			"byteLength":354024,
			"byteOffset":1171488,
			"target":34963
		},
		{
			"buffer":0,
			"byteLength":314928,
			"byteOffset":1525512,
			"target":34962
		},
		{
			"buffer":0,
			"byteLength":314928,
			"byteOffset":1840440,
			"target":34962
		},
		{
			"buffer":0,
			"byteLength":209952,
			"byteOffset":2155368,
			"target":34962
		},
		{
			"buffer":0,
			"byteLength":227424,
			"byteOffset":2365320,
			"target":34963
		}
	],
	"buffers":[
		{
			"byteLength":2592744,
			"uri":"data:application/octet-stream;base64,"
		}
	]
}
