{
	"asset":{
		"generator":"Khronos glTF Blender I/O v3.6.27",
		"version":"2.0"
	},
	"extensionsUsed":[
		"KHR_materials_specular",
		"KHR_materials_ior"
	],
	"scene":0,
	"scenes":[
		{
			"name":"Scene",
			"nodes":[
				0,
				1,
				2,
				3,
				4
			]
		}
	],
	"nodes":[
		{
			"mesh":0,
			"name":"Ferrari_Testarossa_Plane.008",
			"rotation":[
				0.70710688829422,
				0,
				0,
				0.7071066498756409
			]
		},
		{
			"mesh":1,
			"name":"FL_Circle.002",
			"rotation":[
				0.70710688829422,
				0,
				0,
				0.7071066498756409
			]
		},
		{
			"mesh":2,
			"name":"FR_Circle.003",
			"rotation":[
				0.70710688829422,
				0,
				0,
				0.7071066498756409
			]
		},
		{
			"mesh":3,
			"name":"RL_Circle.002",
			"rotation":[
				0.70710688829422,
				0,
				0,
				0.7071066498756409
			]
		},
		{
			"mesh":4,
			"name":"RR_Circle.003",
			"rotation":[
				0.70710688829422,
				0,
				0,
				0.7071066498756409
			]
		}
	],
	"materials":[
		{
			"doubleSided":true,
			"extensions":{
				"KHR_materials_specular":{
					"specularColorFactor":[
						0,
						0,
						0
					]
				},
				"KHR_materials_ior":{
					"ior":1.4500000476837158
				}
			},
			"name":"Body",
			"pbrMetallicRoughness":{
				"baseColorFactor":[
					0.800000011920929,
					0.800000011920929,
					0.800000011920929,
					1
				],
				"metallicFactor":0
			}
		},
		{
			"doubleSided":true,
			"extensions":{
				"KHR_materials_specular":{
					"specularColorFactor":[
						0,
						0,
						0
					]
				},
				"KHR_materials_ior":{
					"ior":1.4500000476837158
				}
			},
			"name":"Wipers",
			"pbrMetallicRoughness":{
				"baseColorFactor":[
					0.800000011920929,
					0.800000011920929,
					0.800000011920929,
					1
				],
				"metallicFactor":0
			}
		},
		{
			"doubleSided":true,
			"extensions":{
				"KHR_materials_specular":{
					"specularColorFactor":[
						0,
						0,
						0
					]
				},
				"KHR_materials_ior":{
					"ior":1.4500000476837158
				}
			},
			"name":"Black",
			"pbrMetallicRoughness":{
				"baseColorFactor":[
					0.800000011920929,
					0.800000011920929,
					0.800000011920929,
					1
				],
				"metallicFactor":0
			}
		},
		{
			"doubleSided":true,
			"extensions":{
				"KHR_materials_specular":{
					"specularColorFactor":[
						0,
						0,
						0
					]
				},
				"KHR_materials_ior":{
					"ior":1.4500000476837158
				}
			},
			"name":"Material.004",
			"pbrMetallicRoughness":{
				"baseColorFactor":[
					0.800000011920929,
					0.800000011920929,
					0.800000011920929,
					1
				],
				"metallicFactor":0
			}
		},
		{
			"doubleSided":true,
			"extensions":{
				"KHR_materials_specular":{
					"specularColorFactor":[
						0,
						0,
						0
					]
				},
				"KHR_materials_ior":{
					"ior":1.4500000476837158
				}
			},
			"name":"Interior",
			"pbrMetallicRoughness":{
				"baseColorFactor":[
					0.800000011920929,
					0.800000011920929,
					0.800000011920929,
					1
				],
				"metallicFactor":0
			}
		},
		{
			"doubleSided":true,
			"extensions":{
				"KHR_materials_specular":{
					"specularColorFactor":[
						0,
						0,
						0
					]
				},
				"KHR_materials_ior":{
					"ior":1.4500000476837158
				}
			},
			"name":"Material.001",
			"pbrMetallicRoughness":{
				"baseColorFactor":[
					0.800000011920929,
					0.800000011920929,
					0.800000011920929,
					1
				],
				"metallicFactor":0
			}
		},
		{
			"doubleSided":true,
			"extensions":{
				"KHR_materials_specular":{
					"specularColorFactor":[
						0,
						0,
						0
					]
				},
				"KHR_materials_ior":{
					"ior":1.4500000476837158
				}
			},
			"name":"Glass",
			"pbrMetallicRoughness":{
				"baseColorFactor":[
					0.800000011920929,
					0.800000011920929,
					0.800000011920929,
					1
				],
				"metallicFactor":0
			}
		},
		{
			"doubleSided":true,
			"extensions":{
				"KHR_materials_specular":{
					"specularColorFactor":[
						0,
						0,
						0
					]
				},
				"KHR_materials_ior":{
					"ior":1.4500000476837158
				}
			},
			"name":"Material.007",
			"pbrMetallicRoughness":{
				"baseColorFactor":[
					0.800000011920929,
					0.800000011920929,
					0.800000011920929,
					1
				],
				"metallicFactor":0
			}
		},
		{
			"doubleSided":true,
			"extensions":{
				"KHR_materials_specular":{
					"specularColorFactor":[
						0,
						0,
						0
					]
				},
				"KHR_materials_ior":{
					"ior":1.4500000476837158
				}
			},
			"name":"testarossawheel.001",
			"pbrMetallicRoughness":{
				"baseColorFactor":[
					0.800000011920929,
					0.800000011920929,
					0.800000011920929,
					1
				],
				"metallicFactor":0
			}
		},
		{
			"doubleSided":true,
			"extensions":{
				"KHR_materials_specular":{
					"specularColorFactor":[
						0,
						0,
						0
					]
				},
				"KHR_materials_ior":{
					"ior":1.4500000476837158
				}
			},
			"name":"Material.003",
			"pbrMetallicRoughness":{
				"baseColorFactor":[
					0.800000011920929,
					0.800000011920929,
					0.800000011920929,
					1
				],
				"metallicFactor":0
			}
		},
		{
			"doubleSided":true,
			"extensions":{
				"KHR_materials_specular":{
					"specularColorFactor":[
						0,
						0,
						0
					]
				},
				"KHR_materials_ior":{
					"ior":1.4500000476837158
				}
			},
			"name":"testarossawheel",
			"pbrMetallicRoughness":{
				"baseColorFactor":[
					0.800000011920929,
					0.800000011920929,
					0.800000011920929,
					1
				],
				"metallicFactor":0
			}
		},
		{
			"doubleSided":true,
			"extensions":{
				"KHR_materials_specular":{
					"specularColorFactor":[
						0,
						0,
						0
					]
				},
				"KHR_materials_ior":{
					"ior":1.4500000476837158
				}
			},
			"name":"Material.002",
			"pbrMetallicRoughness":{
				"baseColorFactor":[
					0.800000011920929,
					0.800000011920929,
					0.800000011920929,
					1
				],
				"metallicFactor":0
			}
		}
	],
	"meshes":[
		{
			"name":"Ferrari_Testarossa_Plane.008",
			"primitives":[
				{
					"attributes":{
						"POSITION":0,
						"NORMAL":1,
						"TEXCOORD_0":2
					},
					"indices":3,
					"material":0
				},
				{
					"attributes":{
						"POSITION":4,
						"NORMAL":5,
						"TEXCOORD_0":6
					},
					"indices":7,
					"material":1
				},
				{
					"attributes":{
						"POSITION":8,
						"NORMAL":9,
						"TEXCOORD_0":10
					},
					"indices":11,
					"material":2
				},
				{
					"attributes":{
						"POSITION":12,
						"NORMAL":13,
						"TEXCOORD_0":14
					},
					"indices":15,
					"material":3
				},
				{
					"attributes":{
						"POSITION":16,
						"NORMAL":17,
						"TEXCOORD_0":18
					},
					"indices":19,
					"material":4
				},
				{
					"attributes":{
						"POSITION":20,
						"NORMAL":21,
						"TEXCOORD_0":22
					},
					"indices":23,
					"material":5
				},
				{
					"attributes":{
						"POSITION":24,
						"NORMAL":25,
						"TEXCOORD_0":26
					},
					"indices":27,
					"material":6
				},
				{
					"attributes":{
						"POSITION":28,
						"NORMAL":29,
						"TEXCOORD_0":30
					},
					"indices":31,
					"material":7
				}
			]
		},
		{
			"name":"FL_Circle.002",
			"primitives":[
				{
					"attributes":{
						"POSITION":32,
						"NORMAL":33,
						"TEXCOORD_0":34
					},
					"indices":35,
					"material":8
				},
				{
					"attributes":{
						"POSITION":36,
						"NORMAL":37,
						"TEXCOORD_0":38
					},
					"indices":39,
					"material":9
				}
			]
		},
		{
			"name":"FR_Circle.003",
			"primitives":[
				{
					"attributes":{
						"POSITION":40,
						"NORMAL":41,
						"TEXCOORD_0":42
					},
					"indices":43,
					"material":10
				},
				{
					"attributes":{
						"POSITION":44,
						"NORMAL":45,
						"TEXCOORD_0":46
					},
					"indices":47,
					"material":11
				}
			]
		},
		{
			"name":"RL_Circle.002",
			"primitives":[
				{
					"attributes":{
						"POSITION":48,
						"NORMAL":49,
						"TEXCOORD_0":50
					},
					"indices":35,
					"material":8
				},
				{
					"attributes":{
						"POSITION":51,
						"NORMAL":52,
						"TEXCOORD_0":53
					},
					"indices":54,
					"material":9
				}
			]
		},
		{
			"name":"RR_Circle.003",
			"primitives":[
				{
					"attributes":{
						"POSITION":55,
						"NORMAL":56,
						"TEXCOORD_0":57
					},
					"indices":43,
					"material":10
				},
				{
					"attributes":{
						"POSITION":58,
						"NORMAL":59,
						"TEXCOORD_0":60
					},
					"indices":61,
					"material":11
				}
			]
		}
	],
	"accessors":[
		{
			"bufferView":0,
			"componentType":5126,
			"count":15890,
			"max":[
				1.0123770236968994,
				2.2307419776916504,
				-0.05827699974179268
			],
			"min":[
				-1.0123800039291382,
				-2.2178618907928467,
				-1.033437967300415
			],
			"type":"VEC3"
		},
		{
			"bufferView":1,
			"componentType":5126,
			"count":15890,
			"type":"VEC3"
		},
		{
			"bufferView":2,
			"componentType":5126,
			"count":15890,
			"type":"VEC2"
		},
		{
			"bufferView":3,
			"componentType":5123,
			"count":63705,
			"type":"SCALAR"
		},
		{
			"bufferView":4,
			"componentType":5126,
			"count":740,
			"max":[
				0.6196410059928894,
				1.0259499549865723,
				-0.678970992565155
			],
			"min":[
				-0.6887419819831848,
				0.6713759899139404,
				-0.766418993473053
			],
			"type":"VEC3"
		},
		{
			"bufferView":5,
			"componentType":5126,
			"count":740,
			"type":"VEC3"
		},
		{
			"bufferView":6,
			"componentType":5126,
			"count":740,
			"type":"VEC2"
		},
		{
			"bufferView":7,
			"componentType":5123,
			"count":3864,
			"type":"SCALAR"
		},
		{
			"bufferView":8,
			"componentType":5126,
			"count":146,
			"max":[
				0.43489599227905273,
				0.5932589769363403,
				-0.6260210275650024
			],
			"min":[
				0.25178098678588867,
				0.5805429816246033,
				-0.6581289768218994
			],
			"type":"VEC3"
		},
		{
			"bufferView":9,
			"componentType":5126,
			"count":146,
			"type":"VEC3"
		},
		{
			"bufferView":10,
			"componentType":5126,
			"count":146,
			"type":"VEC2"
		},
		{
			"bufferView":11,
			"componentType":5123,
			"count":240,
			"type":"SCALAR"
		},
		{
			"bufferView":12,
			"componentType":5126,
			"count":467,
			"max":[
				0.7028480172157288,
				2.1811718940734863,
				-0.21740999817848206
			],
			"min":[
				-0.6910549998283386,
				1.48677396774292,
				-0.3465439975261688
			],
			"type":"VEC3"
		},
		{
			"bufferView":13,
			"componentType":5126,
			"count":467,
			"type":"VEC3"
		},
		{
			"bufferView":14,
			"componentType":5126,
			"count":467,
			"type":"VEC2"
		},
		{
			"bufferView":15,
			"componentType":5123,
			"count":2232,
			"type":"SCALAR"
		},
		{
			"bufferView":16,
			"componentType":5126,
			"count":20617,
			"max":[
				0.7502390146255493,
				1.136173963546753,
				-0.10771500319242477
			],
			"min":[
				-0.750236988067627,
				-0.9810259938240051,
				-1.013211965560913
			],
			"type":"VEC3"
		},
		{
			"bufferView":17,
			"componentType":5126,
			"count":20617,
			"type":"VEC3"
		},
		{
			"bufferView":18,
			"componentType":5126,
			"count":20617,
			"type":"VEC2"
		},
		{
			"bufferView":19,
			"componentType":5123,
			"count":89478,
			"type":"SCALAR"
		},
		{
			"bufferView":20,
			"componentType":5126,
			"count":4711,
			"max":[
				0.9518240094184875,
				2.2009449005126953,
				-0.05827699974179268
			],
			"min":[
				-0.9624199867248535,
				-2.1972169876098633,
				-0.9805499911308289
			],
			"type":"VEC3"
		},
		{
			"bufferView":21,
			"componentType":5126,
			"count":4711,
			"type":"VEC3"
		},
		{
			"bufferView":22,
			"componentType":5126,
			"count":4711,
			"type":"VEC2"
		},
		{
			"bufferView":23,
			"componentType":5123,
			"count":16305,
			"type":"SCALAR"
		},
		{
			"bufferView":24,
			"componentType":5126,
			"count":632,
			"max":[
				0.9077439904212952,
				0.9630770087242126,
				-0.4645729959011078
			],
			"min":[
				-0.9077439904212952,
				-2.1545729637145996,
				-0.9848080277442932
			],
			"type":"VEC3"
		},
		{
			"bufferView":25,
			"componentType":5126,
			"count":632,
			"type":"VEC3"
		},
		{
			"bufferView":26,
			"componentType":5126,
			"count":632,
			"type":"VEC2"
		},
		{
			"bufferView":27,
			"componentType":5123,
			"count":2568,
			"type":"SCALAR"
		},
		{
			"bufferView":28,
			"componentType":5126,
			"count":115,
			"max":[
				0.9108729958534241,
				-2.063994884490967,
				-0.423458993434906
			],
			"min":[
				-0.9108729958534241,
				-2.1478641033172607,
				-0.5188949704170227
			],
			"type":"VEC3"
		},
		{
			"bufferView":29,
			"componentType":5126,
			"count":115,
			"type":"VEC3"
		},
		{
			"bufferView":30,
			"componentType":5126,
			"count":115,
			"type":"VEC2"
		},
		{
			"bufferView":31,
			"componentType":5123,
			"count":366,
			"type":"SCALAR"
		},
		{
			"bufferView":32,
			"componentType":5126,
			"count":2201,
			"max":[
				0.887453019618988,
				1.4571640491485596,
				0.10371100157499313
			],
			"min":[
				0.6022840142250061,
				0.8004639744758606,
				-0.5542420148849487
			],
			"type":"VEC3"
		},
		{
			"bufferView":33,
			"componentType":5126,
			"count":2201,
			"type":"VEC3"
		},
		{
			"bufferView":34,
			"componentType":5126,
			"count":2201,
			"type":"VEC2"
		},
		{
			"bufferView":35,
			"componentType":5123,
			"count":11346,
			"type":"SCALAR"
		},
		{
			"bufferView":36,
			"componentType":5126,
			"count":4464,
			"max":[
				0.8864079713821411,
				1.3383020162582397,
				-0.013112000189721584
			],
			"min":[
				0.6063740253448486,
				0.9184049963951111,
				-0.4356060028076172
			],
			"type":"VEC3"
		},
		{
			"bufferView":37,
			"componentType":5126,
			"count":4464,
			"type":"VEC3"
		},
		{
			"bufferView":38,
			"componentType":5126,
			"count":4464,
			"type":"VEC2"
		},
		{
			"bufferView":39,
			"componentType":5123,
			"count":18222,
			"type":"SCALAR"
		},
		{
			"bufferView":40,
			"componentType":5126,
			"count":2201,
			"max":[
				-0.6032739877700806,
				1.4548790454864502,
				0.10371100157499313
			],
			"min":[
				-0.8884429931640625,
				0.7981780171394348,
				-0.5542420148849487
			],
			"type":"VEC3"
		},
		{
			"bufferView":41,
			"componentType":5126,
			"count":2201,
			"type":"VEC3"
		},
		{
			"bufferView":42,
			"componentType":5126,
			"count":2201,
			"type":"VEC2"
		},
		{
			"bufferView":43,
			"componentType":5123,
			"count":11346,
			"type":"SCALAR"
		},
		{
			"bufferView":44,
			"componentType":5126,
			"count":4475,
			"max":[
				-0.6073639988899231,
				1.3369369506835938,
				-0.013112000189721584
			],
			"min":[
				-0.8873980045318604,
				0.9170399904251099,
				-0.4356060028076172
			],
			"type":"VEC3"
		},
		{
			"bufferView":45,
			"componentType":5126,
			"count":4475,
			"type":"VEC3"
		},
		{
			"bufferView":46,
			"componentType":5126,
			"count":4475,
			"type":"VEC2"
		},
		{
			"bufferView":47,
			"componentType":5123,
			"count":18222,
			"type":"SCALAR"
		},
		{
			"bufferView":48,
			"componentType":5126,
			"count":2201,
			"max":[
				0.9744529724121094,
				-1.0851210355758667,
				0.10371100157499313
			],
			"min":[
				0.6892840266227722,
				-1.741821050643921,
				-0.5542420148849487
			],
			"type":"VEC3"
		},
		{
			"bufferView":49,
			"componentType":5126,
			"count":2201,
			"type":"VEC3"
		},
		{
			"bufferView":50,
			"componentType":5126,
			"count":2201,
			"type":"VEC2"
		},
		{
			"bufferView":51,
			"componentType":5126,
			"count":4476,
			"max":[
				0.9734079837799072,
				-1.203982949256897,
				-0.013112000189721584
			],
			"min":[
				0.69337397813797,
				-1.6238800287246704,
				-0.4356060028076172
			],
			"type":"VEC3"
		},
		{
			"bufferView":52,
			"componentType":5126,
			"count":4476,
			"type":"VEC3"
		},
		{
			"bufferView":53,
			"componentType":5126,
			"count":4476,
			"type":"VEC2"
		},
		{
			"bufferView":54,
			"componentType":5123,
			"count":18222,
			"type":"SCALAR"
		},
		{
			"bufferView":55,
			"componentType":5126,
			"count":2201,
			"max":[
				-0.6893140077590942,
				-1.087406039237976,
				0.10371100157499313
			],
			"min":[
				-0.9744830131530762,
				-1.7441070079803467,
				-0.5542420148849487
			],
			"type":"VEC3"
		},
		{
			"bufferView":56,
			"componentType":5126,
			"count":2201,
			"type":"VEC3"
		},
		{
			"bufferView":57,
			"componentType":5126,
			"count":2201,
			"type":"VEC2"
		},
		{
			"bufferView":58,
			"componentType":5126,
			"count":4521,
			"max":[
				-0.6934040188789368,
				-1.205348014831543,
				-0.013112000189721584
			],
			"min":[
				-0.973438024520874,
				-1.6252449750900269,
				-0.4356060028076172
			],
			"type":"VEC3"
		},
		{
			"bufferView":59,
			"componentType":5126,
			"count":4521,
			"type":"VEC3"
		},
		{
			"bufferView":60,
			"componentType":5126,
			"count":4521,
			"type":"VEC2"
		},
		{
			"bufferView":61,
			"componentType":5123,
			"count":18222,
			"type":"SCALAR"
		}
	],
	"bufferViews":[
		{
			"buffer":0,
			"byteLength":190680,
			"byteOffset":0,
			"target":34962
		},
		{
			"buffer":0,
			"byteLength":190680,
			"byteOffset":190680,
			"target":34962
		},
		{
			"buffer":0,
			"byteLength":127120,
			"byteOffset":381360,
			"target":34962
		},
		{
			"buffer":0,
			"byteLength":127410,
			"byteOffset":508480,
			"target":34963
		},
		{
			"buffer":0,
			"byteLength":8880,
			"byteOffset":635892,
			"target":34962
		},
		{
			"buffer":0,
			"byteLength":8880,
			"byteOffset":644772,
			"target":34962
		},
		{
			"buffer":0,
			"byteLength":5920,
			"byteOffset":653652,
			"target":34962
		},
		{
			"buffer":0,
			"byteLength":7728,
			"byteOffset":659572,
			"target":34963
		},
		{
			"buffer":0,
			"byteLength":1752,
			"byteOffset":667300,
			"target":34962
		},
		{
			"buffer":0,
			"byteLength":1752,
			"byteOffset":669052,
			"target":34962
		},
		{
			"buffer":0,
			"byteLength":1168,
			"byteOffset":670804,
			"target":34962
		},
		{
			"buffer":0,
			"byteLength":480,
			"byteOffset":671972,
			"target":34963
		},
		{
			"buffer":0,
			"byteLength":5604,
			"byteOffset":672452,
			"target":34962
		},
		{
			"buffer":0,
			"byteLength":5604,
			"byteOffset":678056,
			"target":34962
		},
		{
			"buffer":0,
			"byteLength":3736,
			"byteOffset":683660,
			"target":34962
		},
		{
			"buffer":0,
			"byteLength":4464,
			"byteOffset":687396,
			"target":34963
		},
		{
			"buffer":0,
			"byteLength":247404,
			"byteOffset":691860,
			"target":34962
		},
		{
			"buffer":0,
			"byteLength":247404,
			"byteOffset":939264,
			"target":34962
		},
		{
			"buffer":0,
			"byteLength":164936,
			"byteOffset":1186668,
			"target":34962
		},
		{
			"buffer":0,
			"byteLength":178956,
			"byteOffset":1351604,
			"target":34963
		},
		{
			"buffer":0,
			"byteLength":56532,
			"byteOffset":1530560,
			"target":34962
		},
		{
			"buffer":0,
			"byteLength":56532,
			"byteOffset":1587092,
			"target":34962
		},
		{
			"buffer":0,
			"byteLength":37688,
			"byteOffset":1643624,
			"target":34962
		},
		{
			"buffer":0,
			"byteLength":32610,
			"byteOffset":1681312,
			"target":34963
		},
		{
			"buffer":0,
			"byteLength":7584,
			"byteOffset":1713924,
			"target":34962
		},
		{
			"buffer":0,
			"byteLength":7584,
			"byteOffset":1721508,
			"target":34962
		},
		{
			"buffer":0,
			"byteLength":5056,
			"byteOffset":1729092,
			"target":34962
		},
		{
			"buffer":0,
			"byteLength":5136,
			"byteOffset":1734148,
			"target":34963
		},
		{
			"buffer":0,
			"byteLength":1380,
			"byteOffset":1739284,
			"target":34962
		},
		{
			"buffer":0,
			"byteLength":1380,
			"byteOffset":1740664,
			"target":34962
		},
		{
			"buffer":0,
			"byteLength":920,
			"byteOffset":1742044,
			"target":34962
		},
		{
			"buffer":0,
			"byteLength":732,
			"byteOffset":1742964,
			"target":34963
		},
		{
			"buffer":0,
			"byteLength":26412,
			"byteOffset":1743696,
			"target":34962
		},
		{
			"buffer":0,
			"byteLength":26412,
			"byteOffset":1770108,
			"target":34962
		},
		{
			"buffer":0,
			"byteLength":17608,
			"byteOffset":1796520,
			"target":34962
		},
		{
			"buffer":0,
			"byteLength":22692,
			"byteOffset":1814128,
			"target":34963
		},
		{
			"buffer":0,
			"byteLength":53568,
			"byteOffset":1836820,
			"target":34962
		},
		{
			"buffer":0,
			"byteLength":53568,
			"byteOffset":1890388,
			"target":34962
		},
		{
			"buffer":0,
			"byteLength":35712,
			"byteOffset":1943956,
			"target":34962
		},
		{
			"buffer":0,
			"byteLength":36444,
			"byteOffset":1979668,
			"target":34963
		},
		{
			"buffer":0,
			"byteLength":26412,
			"byteOffset":2016112,
			"target":34962
		},
		{
			"buffer":0,
			"byteLength":26412,
			"byteOffset":2042524,
			"target":34962
		},
		{
			"buffer":0,
			"byteLength":17608,
			"byteOffset":2068936,
			"target":34962
		},
		{
			"buffer":0,
			"byteLength":22692,
			"byteOffset":2086544,
			"target":34963
		},
		{
			"buffer":0,
			"byteLength":53700,
			"byteOffset":2109236,
			"target":34962
		},
		{
			"buffer":0,
			"byteLength":53700,
			"byteOffset":2162936,
			"target":34962
		},
		{
			"buffer":0,
			"byteLength":35800,
			"byteOffset":2216636,
			"target":34962
		},
		{
			"buffer":0,
			"byteLength":36444,
			"byteOffset":2252436,
			"target":34963
		},
		{
			"buffer":0,
			"byteLength":26412,
			"byteOffset":2288880,
			"target":34962
		},
		{
			"buffer":0,
			"byteLength":26412,
			"byteOffset":2315292,
			"target":34962
		},
		{
			"buffer":0,
			"byteLength":17608,
			"byteOffset":2341704,
			"target":34962
		},
		{
			"buffer":0,
			"byteLength":53712,
			"byteOffset":2359312,
			"target":34962
		},
		{
			"buffer":0,
			"byteLength":53712,
			"byteOffset":2413024,
			"target":34962
		},
		{
			"buffer":0,
			"byteLength":35808,
			"byteOffset":2466736,
			"target":34962
		},
		{
			"buffer":0,
			"byteLength":36444,
			"byteOffset":2502544,
			"target":34963
		},
		{
			"buffer":0,
			"byteLength":26412,
			"byteOffset":2538988,
			"target":34962
		},
		{
			"buffer":0,
			"byteLength":26412,
			"byteOffset":2565400,
			"target":34962
		},
		{
			"buffer":0,
			"byteLength":17608,
			"byteOffset":2591812,
			"target":34962
		},
		{
			"buffer":0,
			"byteLength":54252,
			"byteOffset":2609420,
			"target":34962
		},
		{
			"buffer":0,
			"byteLength":54252,
			"byteOffset":2663672,
			"target":34962
		},
		{
			"buffer":0,
			"byteLength":36168,
			"byteOffset":2717924,
			"target":34962
		},
		{
			"buffer":0,
			"byteLength":36444,
			"byteOffset":2754092,
			"target":34963
		}
	],
	"buffers":[
		{
			"byteLength":2790536,
			"uri":"data:application/octet-stream;base64,"
		}
	]
}
