{
	"asset":{
		"generator":"Khronos glTF Blender I/O v3.6.27",
		"version":"2.0"
	},
	"extensionsUsed":[
		"KHR_materials_specular",
		"KHR_materials_ior"
	],
	"scene":0,
	"scenes":[
		{
			"name":"Scene",
			"nodes":[
				0
			]
		}
	],
	"nodes":[
		{
			"mesh":0,
			"name":"Dog",
			"translation":[
				0,
				4,
				0
			]
		}
	],
	"materials":[
		{
			"doubleSided":true,
			"extensions":{
				"KHR_materials_specular":{
					"specularColorFactor":[
						0,
						0,
						0
					]
				},
				"KHR_materials_ior":{
					"ior":1.4500000476837158
				}
			},
			"name":"material_1",
			"pbrMetallicRoughness":{
				"baseColorFactor":[
					0.800000011920929,
					0.800000011920929,
					0.800000011920929,
					1
				],
				"metallicFactor":0
			}
		}
	],
	"meshes":[
		{
			"name":"Dog",
			"primitives":[
				{
					"attributes":{
						"POSITION":0,
						"NORMAL":1,
						"TEXCOORD_0":2
					},
					"indices":3,
					"material":0
				}
			]
		}
	],
	"accessors":[
		{
			"bufferView":0,
			"componentType":5126,
			"count":54482,
			"max":[
				5.776899814605713,
				22.275400161743164,
				16.864700317382812
			],
			"min":[
				-5.776899814605713,
				-3.75492000579834,
				-18.247400283813477
			],
			"type":"VEC3"
		},
		{
			"bufferView":1,
			"componentType":5126,
			"count":54482,
			"type":"VEC3"
		},
		{
			"bufferView":2,
			"componentType":5126,
			"count":54482,
			"type":"VEC2"
		},
		{
			"bufferView":3,
			"componentType":5123,
			"count":298272,
			"type":"SCALAR"
		}
	],
	"bufferViews":[
		{
			"buffer":0,
			"byteLength":653784,
			"byteOffset":0,
			"target":34962
		},
		{
			"buffer":0,
			"byteLength":653784,
			"byteOffset":653784,
			"target":34962
		},
		{
			"buffer":0,
			"byteLength":435856,
			"byteOffset":1307568,
			"target":34962
		},
		{
			"buffer":0,
			"byteLength":596544,
			"byteOffset":1743424,
			"target":34963
		}
	],
	"buffers":[
		{
			"byteLength":2339968,
			"uri":"data:application/octet-stream;base64,"
		}
	]
}
