{
	"asset":{
		"generator":"Khronos glTF Blender I/O v3.6.27",
		"version":"2.0"
	},
	"scene":0,
	"scenes":[
		{
			"name":"Scene",
			"nodes":[
				0
			]
		}
	],
	"nodes":[
		{
			"mesh":0,
			"name":"12683_hand_v1_FINAL",
			"rotation":[
				0.5,
				-0.4999999403953552,
				-0.5,
				0.5000000596046448
			],
			"translation":[
				1,
				28,
				0
			]
		}
	],
	"meshes":[
		{
			"name":"12683_hand_v1_FINAL",
			"primitives":[
				{
					"attributes":{
						"POSITION":0,
						"NORMAL":1,
						"TEXCOORD_0":2
					},
					"indices":3
				}
			]
		}
	],
	"accessors":[
		{
			"bufferView":0,
			"componentType":5126,
			"count":51884,
			"max":[
				27.566699981689453,
				16.792600631713867,
				29.56220054626465
			],
			"min":[
				-42.03900146484375,
				-10.272299766540527,
				-14.779500007629395
			],
			"type":"VEC3"
		},
		{
			"bufferView":1,
			"componentType":5126,
			"count":51884,
			"type":"VEC3"
		},
		{
			"bufferView":2,
			"componentType":5126,
			"count":51884,
			"type":"VEC2"
		},
		{
			"bufferView":3,
			"componentType":5123,
			"count":299136,
			"type":"SCALAR"
		}
	],
	"bufferViews":[
		{
			"buffer":0,
			"byteLength":622608,
			"byteOffset":0,
			"target":34962
		},
		{
			"buffer":0,
			"byteLength":622608,
			"byteOffset":622608,
			"target":34962
		},
		{
			"buffer":0,
			"byteLength":415072,
			"byteOffset":1245216,
			"target":34962
		},
		{
			"buffer":0,
			"byteLength":598272,
			"byteOffset":1660288,
			"target":34963
		}
	],
	"buffers":[
		{
			"byteLength":2258560,
			"uri":"data:application/octet-stream;base64,"
		}
	]
}
