{
	"asset":{
		"generator":"Khronos glTF Blender I/O v3.6.27",
		"version":"2.0"
	},
	"extensionsUsed":[
		"KHR_materials_specular",
		"KHR_materials_ior"
	],
	"scene":0,
	"scenes":[
		{
			"name":"Scene",
			"nodes":[
				0,
				1
			]
		}
	],
	"nodes":[
		{
			"mesh":0,
			"name":"Dog",
			"translation":[
				0,
				4,
				0
			]
		},
		{
			"mesh":1,
			"name":"11805_airplane_v2_L2",
			"translation":[
				0,
				-50,
				0
			]
		}
	],
	"materials":[
		{
			"doubleSided":true,
			"extensions":{
				"KHR_materials_specular":{
					"specularColorFactor":[
						0,
						0,
						0
					]
				},
				"KHR_materials_ior":{
					"ior":1.4500000476837158
				}
			},
			"name":"material_1.006",
			"pbrMetallicRoughness":{
				"baseColorFactor":[
					0.800000011920929,
					0.800000011920929,
					0.800000011920929,
					1
				],
				"metallicFactor":0
			}
		},
		{
			"doubleSided":true,
			"extensions":{
				"KHR_materials_specular":{
					"specularColorFactor":[
						0,
						0,
						0
					]
				},
				"KHR_materials_ior":{
					"ior":1.4500000476837158
				}
			},
			"name":"airplane_body",
			"pbrMetallicRoughness":{
				"baseColorFactor":[
					0.800000011920929,
					0.800000011920929,
					0.800000011920929,
					1
				],
				"metallicFactor":0
			}
		},
		{
			"doubleSided":true,
			"extensions":{
				"KHR_materials_specular":{
					"specularColorFactor":[
						0,
						0,
						0
					]
				},
				"KHR_materials_ior":{
					"ior":1.4500000476837158
				}
			},
			"name":"airplane_wings",
			"pbrMetallicRoughness":{
				"baseColorFactor":[
					0.800000011920929,
					0.800000011920929,
					0.800000011920929,
					1
				],
				"metallicFactor":0
			}
		}
	],
	"meshes":[
		{
			"name":"Dog.006",
			"primitives":[
				{
					"attributes":{
						"POSITION":0,
						"NORMAL":1,
						"TEXCOORD_0":2
					},
					"indices":3,
					"material":0
				}
			]
		},
		{
			"name":"11805_airplane_v2_L2",
			"primitives":[
				{
					"attributes":{
						"POSITION":4,
						"NORMAL":5,
						"TEXCOORD_0":6
					},
					"indices":7,
					"material":1
				},
				{
					"attributes":{
						"POSITION":8,
						"NORMAL":9,
						"TEXCOORD_0":10
					},
					"indices":11,
					"material":2
				}
			]
		}
	],
	"accessors":[
		{
			"bufferView":0,
			"componentType":5126,
			"count":7170,
			"max":[
				5.704057693481445,
				22.31899070739746,
				16.875219345092773
			],
			"min":[
				-5.791996955871582,
				-3.8342297077178955,
				-18.243362426757812
			],
			"type":"VEC3"
		},
		{
			"bufferView":1,
			"componentType":5126,
			"count":7170,
			"type":"VEC3"
		},
		{
			"bufferView":2,
			"componentType":5126,
			"count":7170,
			"type":"VEC2"
		},
		{
			"bufferView":3,
			"componentType":5123,
			"count":12957,
			"type":"SCALAR"
		},
		{
			"bufferView":4,
			"componentType":5126,
			"count":5804,
			"max":[
				319.2898864746094,
				500.054443359375,
				749.2557983398438
			],
			"min":[
				-322.2486267089844,
				29.380895614624023,
				-753.0618896484375
			],
			"type":"VEC3"
		},
		{
			"bufferView":5,
			"componentType":5126,
			"count":5804,
			"type":"VEC3"
		},
		{
			"bufferView":6,
			"componentType":5126,
			"count":5804,
			"type":"VEC2"
		},
		{
			"bufferView":7,
			"componentType":5123,
			"count":14910,
			"type":"SCALAR"
		},
		{
			"bufferView":8,
			"componentType":5126,
			"count":6629,
			"max":[
				786.8434448242188,
				242.63021850585938,
				400.3288269042969
			],
			"min":[
				-789.80126953125,
				74.77364349365234,
				-165.90493774414062
			],
			"type":"VEC3"
		},
		{
			"bufferView":9,
			"componentType":5126,
			"count":6629,
			"type":"VEC3"
		},
		{
			"bufferView":10,
			"componentType":5126,
			"count":6629,
			"type":"VEC2"
		},
		{
			"bufferView":11,
			"componentType":5123,
			"count":17193,
			"type":"SCALAR"
		}
	],
	"bufferViews":[
		{
			"buffer":0,
			"byteLength":86040,
			"byteOffset":0,
			"target":34962
		},
		{
			"buffer":0,
			"byteLength":86040,
			"byteOffset":86040,
			"target":34962
		},
		{
			"buffer":0,
			"byteLength":57360,
			"byteOffset":172080,
			"target":34962
		},
		{
			"buffer":0,
			"byteLength":25914,
			"byteOffset":229440,
			"target":34963
		},
		{
			"buffer":0,
			"byteLength":69648,
			"byteOffset":255356,
			"target":34962
		},
		{
			"buffer":0,
			"byteLength":69648,
			"byteOffset":325004,
			"target":34962
		},
		{
			"buffer":0,
			"byteLength":46432,
			"byteOffset":394652,
			"target":34962
		},
		{
			"buffer":0,
			"byteLength":29820,
			"byteOffset":441084,
			"target":34963
		},
		{
			"buffer":0,
			"byteLength":79548,
			"byteOffset":470904,
			"target":34962
		},
		{
			"buffer":0,
			"byteLength":79548,
			"byteOffset":550452,
			"target":34962
		},
		{
			"buffer":0,
			"byteLength":53032,
			"byteOffset":630000,
			"target":34962
		},
		{
			"buffer":0,
			"byteLength":34386,
			"byteOffset":683032,
			"target":34963
		}
	],
	"buffers":[
		{
			"byteLength":717420,
			"uri":"data:application/octet-stream;base64,"
		}
	]
}
