{
	"asset":{
		"generator":"Khronos glTF Blender I/O v3.6.27",
		"version":"2.0"
	},
	"extensionsUsed":[
		"KHR_materials_specular",
		"KHR_materials_ior"
	],
	"scene":0,
	"scenes":[
		{
			"name":"Scene",
			"nodes":[
				0,
				1,
				2,
				3,
				4
			]
		}
	],
	"nodes":[
		{
			"mesh":0,
			"name":"Ferrari_Testarossa_Plane.008",
			"rotation":[
				0.70710688829422,
				0,
				0,
				0.7071066498756409
			]
		},
		{
			"mesh":1,
			"name":"FL_Circle.002",
			"rotation":[
				0.70710688829422,
				0,
				0,
				0.7071066498756409
			]
		},
		{
			"mesh":2,
			"name":"FR_Circle.003",
			"rotation":[
				0.70710688829422,
				0,
				0,
				0.7071066498756409
			]
		},
		{
			"mesh":3,
			"name":"RL_Circle.002",
			"rotation":[
				0.70710688829422,
				0,
				0,
				0.7071066498756409
			]
		},
		{
			"mesh":4,
			"name":"RR_Circle.003",
			"rotation":[
				0.70710688829422,
				0,
				0,
				0.7071066498756409
			]
		}
	],
	"materials":[
		{
			"doubleSided":true,
			"extensions":{
				"KHR_materials_specular":{
					"specularColorFactor":[
						0,
						0,
						0
					]
				},
				"KHR_materials_ior":{
					"ior":1.4500000476837158
				}
			},
			"name":"Body",
			"pbrMetallicRoughness":{
				"baseColorFactor":[
					0.800000011920929,
					0.800000011920929,
					0.800000011920929,
					1
				],
				"metallicFactor":0
			}
		},
		{
			"doubleSided":true,
			"extensions":{
				"KHR_materials_specular":{
					"specularColorFactor":[
						0,
						0,
						0
					]
				},
				"KHR_materials_ior":{
					"ior":1.4500000476837158
				}
			},
			"name":"Wipers",
			"pbrMetallicRoughness":{
				"baseColorFactor":[
					0.800000011920929,
					0.800000011920929,
					0.800000011920929,
					1
				],
				"metallicFactor":0
			}
		},
		{
			"doubleSided":true,
			"extensions":{
				"KHR_materials_specular":{
					"specularColorFactor":[
						0,
						0,
						0
					]
				},
				"KHR_materials_ior":{
					"ior":1.4500000476837158
				}
			},
			"name":"Black",
			"pbrMetallicRoughness":{
				"baseColorFactor":[
					0.800000011920929,
					0.800000011920929,
					0.800000011920929,
					1
				],
				"metallicFactor":0
			}
		},
		{
			"doubleSided":true,
			"extensions":{
				"KHR_materials_specular":{
					"specularColorFactor":[
						0,
						0,
						0
					]
				},
				"KHR_materials_ior":{
					"ior":1.4500000476837158
				}
			},
			"name":"Material.004",
			"pbrMetallicRoughness":{
				"baseColorFactor":[
					0.800000011920929,
					0.800000011920929,
					0.800000011920929,
					1
				],
				"metallicFactor":0
			}
		},
		{
			"doubleSided":true,
			"extensions":{
				"KHR_materials_specular":{
					"specularColorFactor":[
						0,
						0,
						0
					]
				},
				"KHR_materials_ior":{
					"ior":1.4500000476837158
				}
			},
			"name":"Interior",
			"pbrMetallicRoughness":{
				"baseColorFactor":[
					0.800000011920929,
					0.800000011920929,
					0.800000011920929,
					1
				],
				"metallicFactor":0
			}
		},
		{
			"doubleSided":true,
			"extensions":{
				"KHR_materials_specular":{
					"specularColorFactor":[
						0,
						0,
						0
					]
				},
				"KHR_materials_ior":{
					"ior":1.4500000476837158
				}
			},
			"name":"Material.001",
			"pbrMetallicRoughness":{
				"baseColorFactor":[
					0.800000011920929,
					0.800000011920929,
					0.800000011920929,
					1
				],
				"metallicFactor":0
			}
		},
		{
			"doubleSided":true,
			"extensions":{
				"KHR_materials_specular":{
					"specularColorFactor":[
						0,
						0,
						0
					]
				},
				"KHR_materials_ior":{
					"ior":1.4500000476837158
				}
			},
			"name":"Glass",
			"pbrMetallicRoughness":{
				"baseColorFactor":[
					0.800000011920929,
					0.800000011920929,
					0.800000011920929,
					1
				],
				"metallicFactor":0
			}
		},
		{
			"doubleSided":true,
			"extensions":{
				"KHR_materials_specular":{
					"specularColorFactor":[
						0,
						0,
						0
					]
				},
				"KHR_materials_ior":{
					"ior":1.4500000476837158
				}
			},
			"name":"Material.007",
			"pbrMetallicRoughness":{
				"baseColorFactor":[
					0.800000011920929,
					0.800000011920929,
					0.800000011920929,
					1
				],
				"metallicFactor":0
			}
		},
		{
			"doubleSided":true,
			"extensions":{
				"KHR_materials_specular":{
					"specularColorFactor":[
						0,
						0,
						0
					]
				},
				"KHR_materials_ior":{
					"ior":1.4500000476837158
				}
			},
			"name":"testarossawheel.001",
			"pbrMetallicRoughness":{
				"baseColorFactor":[
					0.800000011920929,
					0.800000011920929,
					0.800000011920929,
					1
				],
				"metallicFactor":0
			}
		},
		{
			"doubleSided":true,
			"extensions":{
				"KHR_materials_specular":{
					"specularColorFactor":[
						0,
						0,
						0
					]
				},
				"KHR_materials_ior":{
					"ior":1.4500000476837158
				}
			},
			"name":"Material.003",
			"pbrMetallicRoughness":{
				"baseColorFactor":[
					0.800000011920929,
					0.800000011920929,
					0.800000011920929,
					1
				],
				"metallicFactor":0
			}
		},
		{
			"doubleSided":true,
			"extensions":{
				"KHR_materials_specular":{
					"specularColorFactor":[
						0,
						0,
						0
					]
				},
				"KHR_materials_ior":{
					"ior":1.4500000476837158
				}
			},
			"name":"testarossawheel",
			"pbrMetallicRoughness":{
				"baseColorFactor":[
					0.800000011920929,
					0.800000011920929,
					0.800000011920929,
					1
				],
				"metallicFactor":0
			}
		},
		{
			"doubleSided":true,
			"extensions":{
				"KHR_materials_specular":{
					"specularColorFactor":[
						0,
						0,
						0
					]
				},
				"KHR_materials_ior":{
					"ior":1.4500000476837158
				}
			},
			"name":"Material.002",
			"pbrMetallicRoughness":{
				"baseColorFactor":[
					0.800000011920929,
					0.800000011920929,
					0.800000011920929,
					1
				],
				"metallicFactor":0
			}
		}
	],
	"meshes":[
		{
			"name":"Ferrari_Testarossa_Plane.008",
			"primitives":[
				{
					"attributes":{
						"POSITION":0,
						"NORMAL":1,
						"TEXCOORD_0":2
					},
					"indices":3,
					"material":0
				},
				{
					"attributes":{
						"POSITION":4,
						"NORMAL":5,
						"TEXCOORD_0":6
					},
					"indices":7,
					"material":1
				},
				{
					"attributes":{
						"POSITION":8,
						"NORMAL":9,
						"TEXCOORD_0":10
					},
					"indices":11,
					"material":2
				},
				{
					"attributes":{
						"POSITION":12,
						"NORMAL":13,
						"TEXCOORD_0":14
					},
					"indices":15,
					"material":3
				},
				{
					"attributes":{
						"POSITION":16,
						"NORMAL":17,
						"TEXCOORD_0":18
					},
					"indices":19,
					"material":4
				},
				{
					"attributes":{
						"POSITION":20,
						"NORMAL":21,
						"TEXCOORD_0":22
					},
					"indices":23,
					"material":5
				},
				{
					"attributes":{
						"POSITION":24,
						"NORMAL":25,
						"TEXCOORD_0":26
					},
					"indices":27,
					"material":6
				},
				{
					"attributes":{
						"POSITION":28,
						"NORMAL":29,
						"TEXCOORD_0":30
					},
					"indices":31,
					"material":7
				}
			]
		},
		{
			"name":"FL_Circle.002",
			"primitives":[
				{
					"attributes":{
						"POSITION":32,
						"NORMAL":33,
						"TEXCOORD_0":34
					},
					"indices":35,
					"material":8
				},
				{
					"attributes":{
						"POSITION":36,
						"NORMAL":37,
						"TEXCOORD_0":38
					},
					"indices":39,
					"material":9
				}
			]
		},
		{
			"name":"FR_Circle.003",
			"primitives":[
				{
					"attributes":{
						"POSITION":40,
						"NORMAL":41,
						"TEXCOORD_0":42
					},
					"indices":43,
					"material":10
				},
				{
					"attributes":{
						"POSITION":44,
						"NORMAL":45,
						"TEXCOORD_0":46
					},
					"indices":47,
					"material":11
				}
			]
		},
		{
			"name":"RL_Circle.002",
			"primitives":[
				{
					"attributes":{
						"POSITION":48,
						"NORMAL":49,
						"TEXCOORD_0":50
					},
					"indices":51,
					"material":8
				},
				{
					"attributes":{
						"POSITION":52,
						"NORMAL":53,
						"TEXCOORD_0":54
					},
					"indices":55,
					"material":9
				}
			]
		},
		{
			"name":"RR_Circle.003",
			"primitives":[
				{
					"attributes":{
						"POSITION":56,
						"NORMAL":57,
						"TEXCOORD_0":58
					},
					"indices":59,
					"material":10
				},
				{
					"attributes":{
						"POSITION":60,
						"NORMAL":61,
						"TEXCOORD_0":62
					},
					"indices":63,
					"material":11
				}
			]
		}
	],
	"accessors":[
		{
			"bufferView":0,
			"componentType":5126,
			"count":4030,
			"max":[
				1.011003851890564,
				2.2307145595550537,
				-0.05826553702354431
			],
			"min":[
				-1.011090874671936,
				-2.2167091369628906,
				-1.0346782207489014
			],
			"type":"VEC3"
		},
		{
			"bufferView":1,
			"componentType":5126,
			"count":4030,
			"type":"VEC3"
		},
		{
			"bufferView":2,
			"componentType":5126,
			"count":4030,
			"type":"VEC2"
		},
		{
			"bufferView":3,
			"componentType":5123,
			"count":8493,
			"type":"SCALAR"
		},
		{
			"bufferView":4,
			"componentType":5126,
			"count":80,
			"max":[
				0.6196767687797546,
				1.0234901905059814,
				-0.6797294616699219
			],
			"min":[
				-0.6878238320350647,
				0.674326479434967,
				-0.7672630548477173
			],
			"type":"VEC3"
		},
		{
			"bufferView":5,
			"componentType":5126,
			"count":80,
			"type":"VEC3"
		},
		{
			"bufferView":6,
			"componentType":5126,
			"count":80,
			"type":"VEC2"
		},
		{
			"bufferView":7,
			"componentType":5123,
			"count":282,
			"type":"SCALAR"
		},
		{
			"bufferView":8,
			"componentType":5126,
			"count":15,
			"max":[
				0.43489593267440796,
				0.5926640033721924,
				-0.6260210275650024
			],
			"min":[
				0.25178098678588867,
				0.5805429816246033,
				-0.6579074263572693
			],
			"type":"VEC3"
		},
		{
			"bufferView":9,
			"componentType":5126,
			"count":15,
			"type":"VEC3"
		},
		{
			"bufferView":10,
			"componentType":5126,
			"count":15,
			"type":"VEC2"
		},
		{
			"bufferView":11,
			"componentType":5123,
			"count":15,
			"type":"SCALAR"
		},
		{
			"bufferView":12,
			"componentType":5126,
			"count":108,
			"max":[
				0.7028480172157288,
				2.181652545928955,
				-0.21739259362220764
			],
			"min":[
				-0.6910567283630371,
				1.48677396774292,
				-0.34654510021209717
			],
			"type":"VEC3"
		},
		{
			"bufferView":13,
			"componentType":5126,
			"count":108,
			"type":"VEC3"
		},
		{
			"bufferView":14,
			"componentType":5126,
			"count":108,
			"type":"VEC2"
		},
		{
			"bufferView":15,
			"componentType":5123,
			"count":285,
			"type":"SCALAR"
		},
		{
			"bufferView":16,
			"componentType":5126,
			"count":3533,
			"max":[
				0.7502273917198181,
				1.136173963546753,
				-0.1077134907245636
			],
			"min":[
				-0.7505146265029907,
				-0.9798174500465393,
				-1.0128592252731323
			],
			"type":"VEC3"
		},
		{
			"bufferView":17,
			"componentType":5126,
			"count":3533,
			"type":"VEC3"
		},
		{
			"bufferView":18,
			"componentType":5126,
			"count":3533,
			"type":"VEC2"
		},
		{
			"bufferView":19,
			"componentType":5123,
			"count":8274,
			"type":"SCALAR"
		},
		{
			"bufferView":20,
			"componentType":5126,
			"count":987,
			"max":[
				0.9518237709999084,
				2.204277753829956,
				-0.05827661603689194
			],
			"min":[
				-0.9624200463294983,
				-2.1973485946655273,
				-0.9811522960662842
			],
			"type":"VEC3"
		},
		{
			"bufferView":21,
			"componentType":5126,
			"count":987,
			"type":"VEC3"
		},
		{
			"bufferView":22,
			"componentType":5126,
			"count":987,
			"type":"VEC2"
		},
		{
			"bufferView":23,
			"componentType":5123,
			"count":1932,
			"type":"SCALAR"
		},
		{
			"bufferView":24,
			"componentType":5126,
			"count":205,
			"max":[
				0.9085597395896912,
				0.9640279412269592,
				-0.4645729959011078
			],
			"min":[
				-0.9085596799850464,
				-2.1545729637145996,
				-0.9850507974624634
			],
			"type":"VEC3"
		},
		{
			"bufferView":25,
			"componentType":5126,
			"count":205,
			"type":"VEC3"
		},
		{
			"bufferView":26,
			"componentType":5126,
			"count":205,
			"type":"VEC2"
		},
		{
			"bufferView":27,
			"componentType":5123,
			"count":381,
			"type":"SCALAR"
		},
		{
			"bufferView":28,
			"componentType":5126,
			"count":54,
			"max":[
				0.9113386273384094,
				-2.063856601715088,
				-0.42345452308654785
			],
			"min":[
				-0.9108730554580688,
				-2.1478641033172607,
				-0.5189110636711121
			],
			"type":"VEC3"
		},
		{
			"bufferView":29,
			"componentType":5126,
			"count":54,
			"type":"VEC3"
		},
		{
			"bufferView":30,
			"componentType":5126,
			"count":54,
			"type":"VEC2"
		},
		{
			"bufferView":31,
			"componentType":5123,
			"count":78,
			"type":"SCALAR"
		},
		{
			"bufferView":32,
			"componentType":5126,
			"count":319,
			"max":[
				0.8888109922409058,
				1.4571642875671387,
				0.10079577565193176
			],
			"min":[
				0.6008408069610596,
				0.8025051951408386,
				-0.5523803234100342
			],
			"type":"VEC3"
		},
		{
			"bufferView":33,
			"componentType":5126,
			"count":319,
			"type":"VEC3"
		},
		{
			"bufferView":34,
			"componentType":5126,
			"count":319,
			"type":"VEC2"
		},
		{
			"bufferView":35,
			"componentType":5123,
			"count":1089,
			"type":"SCALAR"
		},
		{
			"bufferView":36,
			"componentType":5126,
			"count":995,
			"max":[
				0.8871349096298218,
				1.343461513519287,
				-0.013162888586521149
			],
			"min":[
				0.6082419753074646,
				0.9144886136054993,
				-0.4363068640232086
			],
			"type":"VEC3"
		},
		{
			"bufferView":37,
			"componentType":5126,
			"count":995,
			"type":"VEC3"
		},
		{
			"bufferView":38,
			"componentType":5126,
			"count":995,
			"type":"VEC2"
		},
		{
			"bufferView":39,
			"componentType":5123,
			"count":2172,
			"type":"SCALAR"
		},
		{
			"bufferView":40,
			"componentType":5126,
			"count":324,
			"max":[
				-0.6020908355712891,
				1.454504370689392,
				0.10053101927042007
			],
			"min":[
				-0.8896559476852417,
				0.7973715662956238,
				-0.5518674850463867
			],
			"type":"VEC3"
		},
		{
			"bufferView":41,
			"componentType":5126,
			"count":324,
			"type":"VEC3"
		},
		{
			"bufferView":42,
			"componentType":5126,
			"count":324,
			"type":"VEC2"
		},
		{
			"bufferView":43,
			"componentType":5123,
			"count":1119,
			"type":"SCALAR"
		},
		{
			"bufferView":44,
			"componentType":5126,
			"count":947,
			"max":[
				-0.6092320084571838,
				1.339997410774231,
				-0.013769833371043205
			],
			"min":[
				-0.8882198333740234,
				0.9170399904251099,
				-0.43699952960014343
			],
			"type":"VEC3"
		},
		{
			"bufferView":45,
			"componentType":5126,
			"count":947,
			"type":"VEC3"
		},
		{
			"bufferView":46,
			"componentType":5126,
			"count":947,
			"type":"VEC2"
		},
		{
			"bufferView":47,
			"componentType":5123,
			"count":2145,
			"type":"SCALAR"
		},
		{
			"bufferView":48,
			"componentType":5126,
			"count":320,
			"max":[
				0.9759171009063721,
				-1.0865116119384766,
				0.10178432613611221
			],
			"min":[
				0.6887578368186951,
				-1.7401108741760254,
				-0.5521055459976196
			],
			"type":"VEC3"
		},
		{
			"bufferView":49,
			"componentType":5126,
			"count":320,
			"type":"VEC3"
		},
		{
			"bufferView":50,
			"componentType":5126,
			"count":320,
			"type":"VEC2"
		},
		{
			"bufferView":51,
			"componentType":5123,
			"count":1098,
			"type":"SCALAR"
		},
		{
			"bufferView":52,
			"componentType":5126,
			"count":914,
			"max":[
				0.973800539970398,
				-1.2007852792739868,
				-0.014235175214707851
			],
			"min":[
				0.6952419877052307,
				-1.6229569911956787,
				-0.4351392686367035
			],
			"type":"VEC3"
		},
		{
			"bufferView":53,
			"componentType":5126,
			"count":914,
			"type":"VEC3"
		},
		{
			"bufferView":54,
			"componentType":5126,
			"count":914,
			"type":"VEC2"
		},
		{
			"bufferView":55,
			"componentType":5123,
			"count":2166,
			"type":"SCALAR"
		},
		{
			"bufferView":56,
			"componentType":5126,
			"count":318,
			"max":[
				-0.68797767162323,
				-1.0877825021743774,
				0.10089679807424545
			],
			"min":[
				-0.9755836725234985,
				-1.7422387599945068,
				-0.5518531203269958
			],
			"type":"VEC3"
		},
		{
			"bufferView":57,
			"componentType":5126,
			"count":318,
			"type":"VEC3"
		},
		{
			"bufferView":58,
			"componentType":5126,
			"count":318,
			"type":"VEC2"
		},
		{
			"bufferView":59,
			"componentType":5123,
			"count":1089,
			"type":"SCALAR"
		},
		{
			"bufferView":60,
			"componentType":5126,
			"count":996,
			"max":[
				-0.6952720284461975,
				-1.2007900476455688,
				-0.015322873368859291
			],
			"min":[
				-0.9736006855964661,
				-1.6252450942993164,
				-0.43680375814437866
			],
			"type":"VEC3"
		},
		{
			"bufferView":61,
			"componentType":5126,
			"count":996,
			"type":"VEC3"
		},
		{
			"bufferView":62,
			"componentType":5126,
			"count":996,
			"type":"VEC2"
		},
		{
			"bufferView":63,
			"componentType":5123,
			"count":2175,
			"type":"SCALAR"
		}
	],
	"bufferViews":[
		{
			"buffer":0,
			"byteLength":48360,
			"byteOffset":0,
			"target":34962
		},
		{
			"buffer":0,
			"byteLength":48360,
			"byteOffset":48360,
			"target":34962
		},
		{
			"buffer":0,
			"byteLength":32240,
			"byteOffset":96720,
			"target":34962
		},
		{
			"buffer":0,
			"byteLength":16986,
			"byteOffset":128960,
			"target":34963
		},
		{
			"buffer":0,
			"byteLength":960,
			"byteOffset":145948,
			"target":34962
		},
		{
			"buffer":0,
			"byteLength":960,
			"byteOffset":146908,
			"target":34962
		},
		{
			"buffer":0,
			"byteLength":640,
			"byteOffset":147868,
			"target":34962
		},
		{
			"buffer":0,
			"byteLength":564,
			"byteOffset":148508,
			"target":34963
		},
		{
			"buffer":0,
			"byteLength":180,
			"byteOffset":149072,
			"target":34962
		},
		{
			"buffer":0,
			"byteLength":180,
			"byteOffset":149252,
			"target":34962
		},
		{
			"buffer":0,
			"byteLength":120,
			"byteOffset":149432,
			"target":34962
		},
		{
			"buffer":0,
			"byteLength":30,
			"byteOffset":149552,
			"target":34963
		},
		{
			"buffer":0,
			"byteLength":1296,
			"byteOffset":149584,
			"target":34962
		},
		{
			"buffer":0,
			"byteLength":1296,
			"byteOffset":150880,
			"target":34962
		},
		{
			"buffer":0,
			"byteLength":864,
			"byteOffset":152176,
			"target":34962
		},
		{
			"buffer":0,
			"byteLength":570,
			"byteOffset":153040,
			"target":34963
		},
		{
			"buffer":0,
			"byteLength":42396,
			"byteOffset":153612,
			"target":34962
		},
		{
			"buffer":0,
			"byteLength":42396,
			"byteOffset":196008,
			"target":34962
		},
		{
			"buffer":0,
			"byteLength":28264,
			"byteOffset":238404,
			"target":34962
		},
		{
			"buffer":0,
			"byteLength":16548,
			"byteOffset":266668,
			"target":34963
		},
		{
			"buffer":0,
			"byteLength":11844,
			"byteOffset":283216,
			"target":34962
		},
		{
			"buffer":0,
			"byteLength":11844,
			"byteOffset":295060,
			"target":34962
		},
		{
			"buffer":0,
			"byteLength":7896,
			"byteOffset":306904,
			"target":34962
		},
		{
			"buffer":0,
			"byteLength":3864,
			"byteOffset":314800,
			"target":34963
		},
		{
			"buffer":0,
			"byteLength":2460,
			"byteOffset":318664,
			"target":34962
		},
		{
			"buffer":0,
			"byteLength":2460,
			"byteOffset":321124,
			"target":34962
		},
		{
			"buffer":0,
			"byteLength":1640,
			"byteOffset":323584,
			"target":34962
		},
		{
			"buffer":0,
			"byteLength":762,
			"byteOffset":325224,
			"target":34963
		},
		{
			"buffer":0,
			"byteLength":648,
			"byteOffset":325988,
			"target":34962
		},
		{
			"buffer":0,
			"byteLength":648,
			"byteOffset":326636,
			"target":34962
		},
		{
			"buffer":0,
			"byteLength":432,
			"byteOffset":327284,
			"target":34962
		},
		{
			"buffer":0,
			"byteLength":156,
			"byteOffset":327716,
			"target":34963
		},
		{
			"buffer":0,
			"byteLength":3828,
			"byteOffset":327872,
			"target":34962
		},
		{
			"buffer":0,
			"byteLength":3828,
			"byteOffset":331700,
			"target":34962
		},
		{
			"buffer":0,
			"byteLength":2552,
			"byteOffset":335528,
			"target":34962
		},
		{
			"buffer":0,
			"byteLength":2178,
			"byteOffset":338080,
			"target":34963
		},
		{
			"buffer":0,
			"byteLength":11940,
			"byteOffset":340260,
			"target":34962
		},
		{
			"buffer":0,
			"byteLength":11940,
			"byteOffset":352200,
			"target":34962
		},
		{
			"buffer":0,
			"byteLength":7960,
			"byteOffset":364140,
			"target":34962
		},
		{
			"buffer":0,
			"byteLength":4344,
			"byteOffset":372100,
			"target":34963
		},
		{
			"buffer":0,
			"byteLength":3888,
			"byteOffset":376444,
			"target":34962
		},
		{
			"buffer":0,
			"byteLength":3888,
			"byteOffset":380332,
			"target":34962
		},
		{
			"buffer":0,
			"byteLength":2592,
			"byteOffset":384220,
			"target":34962
		},
		{
			"buffer":0,
			"byteLength":2238,
			"byteOffset":386812,
			"target":34963
		},
		{
			"buffer":0,
			"byteLength":11364,
			"byteOffset":389052,
			"target":34962
		},
		{
			"buffer":0,
			"byteLength":11364,
			"byteOffset":400416,
			"target":34962
		},
		{
			"buffer":0,
			"byteLength":7576,
			"byteOffset":411780,
			"target":34962
		},
		{
			"buffer":0,
			"byteLength":4290,
			"byteOffset":419356,
			"target":34963
		},
		{
			"buffer":0,
			"byteLength":3840,
			"byteOffset":423648,
			"target":34962
		},
		{
			"buffer":0,
			"byteLength":3840,
			"byteOffset":427488,
			"target":34962
		},
		{
			"buffer":0,
			"byteLength":2560,
			"byteOffset":431328,
			"target":34962
		},
		{
			"buffer":0,
			"byteLength":2196,
			"byteOffset":433888,
			"target":34963
		},
		{
			"buffer":0,
			"byteLength":10968,
			"byteOffset":436084,
			"target":34962
		},
		{
			"buffer":0,
			"byteLength":10968,
			"byteOffset":447052,
			"target":34962
		},
		{
			"buffer":0,
			"byteLength":7312,
			"byteOffset":458020,
			"target":34962
		},
		{
			"buffer":0,
			"byteLength":4332,
			"byteOffset":465332,
			"target":34963
		},
		{
			"buffer":0,
			"byteLength":3816,
			"byteOffset":469664,
			"target":34962
		},
		{
			"buffer":0,
			"byteLength":3816,
			"byteOffset":473480,
			"target":34962
		},
		{
			"buffer":0,
			"byteLength":2544,
			"byteOffset":477296,
			"target":34962
		},
		{
			"buffer":0,
			"byteLength":2178,
			"byteOffset":479840,
			"target":34963
		},
		{
			"buffer":0,
			"byteLength":11952,
			"byteOffset":482020,
			"target":34962
		},
		{
			"buffer":0,
			"byteLength":11952,
			"byteOffset":493972,
			"target":34962
		},
		{
			"buffer":0,
			"byteLength":7968,
			"byteOffset":505924,
			"target":34962
		},
		{
			"buffer":0,
			"byteLength":4350,
			"byteOffset":513892,
			"target":34963
		}
	],
	"buffers":[
		{
			"byteLength":518244,
			"uri":"data:application/octet-stream;base64,"
		}
	]
}
