{
	"asset":{
		"generator":"Khronos glTF Blender I/O v3.6.27",
		"version":"2.0"
	},
	"extensionsUsed":[
		"KHR_materials_specular",
		"KHR_materials_ior"
	],
	"scene":0,
	"scenes":[
		{
			"name":"Scene",
			"nodes":[
				0
			]
		}
	],
	"nodes":[
		{
			"mesh":0,
			"name":"Dog",
			"translation":[
				0,
				4,
				0
			]
		}
	],
	"materials":[
		{
			"doubleSided":true,
			"extensions":{
				"KHR_materials_specular":{
					"specularColorFactor":[
						0,
						0,
						0
					]
				},
				"KHR_materials_ior":{
					"ior":1.4500000476837158
				}
			},
			"name":"material_1.004",
			"pbrMetallicRoughness":{
				"baseColorFactor":[
					0.800000011920929,
					0.800000011920929,
					0.800000011920929,
					1
				],
				"metallicFactor":0
			}
		}
	],
	"meshes":[
		{
			"name":"Dog.004",
			"primitives":[
				{
					"attributes":{
						"POSITION":0,
						"NORMAL":1,
						"TEXCOORD_0":2
					},
					"indices":3,
					"material":0
				}
			]
		}
	],
	"accessors":[
		{
			"bufferView":0,
			"componentType":5126,
			"count":11321,
			"max":[
				5.791996955871582,
				22.296127319335938,
				16.87610626220703
			],
			"min":[
				-5.791996955871582,
				-3.7711079120635986,
				-18.260704040527344
			],
			"type":"VEC3"
		},
		{
			"bufferView":1,
			"componentType":5126,
			"count":11321,
			"type":"VEC3"
		},
		{
			"bufferView":2,
			"componentType":5126,
			"count":11321,
			"type":"VEC2"
		},
		{
			"bufferView":3,
			"componentType":5123,
			"count":32937,
			"type":"SCALAR"
		}
	],
	"bufferViews":[
		{
			"buffer":0,
			"byteLength":135852,
			"byteOffset":0,
			"target":34962
		},
		{
			"buffer":0,
			"byteLength":135852,
			"byteOffset":135852,
			"target":34962
		},
		{
			"buffer":0,
			"byteLength":90568,
			"byteOffset":271704,
			"target":34962
		},
		{
			"buffer":0,
			"byteLength":65874,
			"byteOffset":362272,
			"target":34963
		}
	],
	"buffers":[
		{
			"byteLength":428148,
			"uri":"data:application/octet-stream;base64,"
		}
	]
}
