{
	"asset":{
		"generator":"Khronos glTF Blender I/O v3.6.27",
		"version":"2.0"
	},
	"extensionsUsed":[
		"KHR_materials_specular",
		"KHR_materials_ior"
	],
	"scene":0,
	"scenes":[
		{
			"name":"Scene",
			"nodes":[
				0,
				1
			]
		}
	],
	"nodes":[
		{
			"mesh":0,
			"name":"Dog",
			"translation":[
				0,
				4,
				0
			]
		},
		{
			"mesh":1,
			"name":"11805_airplane_v2_L2",
			"translation":[
				0,
				-50,
				0
			]
		}
	],
	"materials":[
		{
			"doubleSided":true,
			"extensions":{
				"KHR_materials_specular":{
					"specularColorFactor":[
						0,
						0,
						0
					]
				},
				"KHR_materials_ior":{
					"ior":1.4500000476837158
				}
			},
			"name":"material_1.006",
			"pbrMetallicRoughness":{
				"baseColorFactor":[
					0.800000011920929,
					0.800000011920929,
					0.800000011920929,
					1
				],
				"metallicFactor":0
			}
		},
		{
			"doubleSided":true,
			"extensions":{
				"KHR_materials_specular":{
					"specularColorFactor":[
						0,
						0,
						0
					]
				},
				"KHR_materials_ior":{
					"ior":1.4500000476837158
				}
			},
			"name":"airplane_body",
			"pbrMetallicRoughness":{
				"baseColorFactor":[
					0.800000011920929,
					0.800000011920929,
					0.800000011920929,
					1
				],
				"metallicFactor":0
			}
		},
		{
			"doubleSided":true,
			"extensions":{
				"KHR_materials_specular":{
					"specularColorFactor":[
						0,
						0,
						0
					]
				},
				"KHR_materials_ior":{
					"ior":1.4500000476837158
				}
			},
			"name":"airplane_wings",
			"pbrMetallicRoughness":{
				"baseColorFactor":[
					0.800000011920929,
					0.800000011920929,
					0.800000011920929,
					1
				],
				"metallicFactor":0
			}
		}
	],
	"meshes":[
		{
			"name":"Dog.006",
			"primitives":[
				{
					"attributes":{
						"POSITION":0,
						"NORMAL":1,
						"TEXCOORD_0":2
					},
					"indices":3,
					"material":0
				}
			]
		},
		{
			"name":"11805_airplane_v2_L2",
			"primitives":[
				{
					"attributes":{
						"POSITION":4,
						"NORMAL":5,
						"TEXCOORD_0":6
					},
					"indices":7,
					"material":1
				},
				{
					"attributes":{
						"POSITION":8,
						"NORMAL":9,
						"TEXCOORD_0":10
					},
					"indices":11,
					"material":2
				}
			]
		}
	],
	"accessors":[
		{
			"bufferView":0,
			"componentType":5126,
			"count":7170,
			"max":[
				5.704057693481445,
				22.31899070739746,
				16.875219345092773
			],
			"min":[
				-5.791996955871582,
				-3.8342297077178955,
				-18.243362426757812
			],
			"type":"VEC3"
		},
		{
			"bufferView":1,
			"componentType":5126,
			"count":7170,
			"type":"VEC3"
		},
		{
			"bufferView":2,
			"componentType":5126,
			"count":7170,
			"type":"VEC2"
		},
		{
			"bufferView":3,
			"componentType":5123,
			"count":12957,
			"type":"SCALAR"
		},
		{
			"bufferView":4,
			"componentType":5126,
			"count":10059,
			"max":[
				319.1271057128906,
				499.94024658203125,
				749.1135864257812
			],
			"min":[
				-322.0859069824219,
				29.19268798828125,
				-753.0651245117188
			],
			"type":"VEC3"
		},
		{
			"bufferView":5,
			"componentType":5126,
			"count":10059,
			"type":"VEC3"
		},
		{
			"bufferView":6,
			"componentType":5126,
			"count":10059,
			"type":"VEC2"
		},
		{
			"bufferView":7,
			"componentType":5123,
			"count":34461,
			"type":"SCALAR"
		},
		{
			"bufferView":8,
			"componentType":5126,
			"count":11407,
			"max":[
				786.954345703125,
				242.6495819091797,
				400.3288269042969
			],
			"min":[
				-789.9121704101562,
				74.77364349365234,
				-165.75186157226562
			],
			"type":"VEC3"
		},
		{
			"bufferView":9,
			"componentType":5126,
			"count":11407,
			"type":"VEC3"
		},
		{
			"bufferView":10,
			"componentType":5126,
			"count":11407,
			"type":"VEC2"
		},
		{
			"bufferView":11,
			"componentType":5123,
			"count":36882,
			"type":"SCALAR"
		}
	],
	"bufferViews":[
		{
			"buffer":0,
			"byteLength":86040,
			"byteOffset":0,
			"target":34962
		},
		{
			"buffer":0,
			"byteLength":86040,
			"byteOffset":86040,
			"target":34962
		},
		{
			"buffer":0,
			"byteLength":57360,
			"byteOffset":172080,
			"target":34962
		},
		{
			"buffer":0,
			"byteLength":25914,
			"byteOffset":229440,
			"target":34963
		},
		{
			"buffer":0,
			"byteLength":120708,
			"byteOffset":255356,
			"target":34962
		},
		{
			"buffer":0,
			"byteLength":120708,
			"byteOffset":376064,
			"target":34962
		},
		{
			"buffer":0,
			"byteLength":80472,
			"byteOffset":496772,
			"target":34962
		},
		{
			"buffer":0,
			"byteLength":68922,
			"byteOffset":577244,
			"target":34963
		},
		{
			"buffer":0,
			"byteLength":136884,
			"byteOffset":646168,
			"target":34962
		},
		{
			"buffer":0,
			"byteLength":136884,
			"byteOffset":783052,
			"target":34962
		},
		{
			"buffer":0,
			"byteLength":91256,
			"byteOffset":919936,
			"target":34962
		},
		{
			"buffer":0,
			"byteLength":73764,
			"byteOffset":1011192,
			"target":34963
		}
	],
	"buffers":[
		{
			"byteLength":1084956,
			"uri":"data:application/octet-stream;base64,"
		}
	]
}
