{
	"asset":{
		"generator":"Khronos glTF Blender I/O v3.6.27",
		"version":"2.0"
	},
	"extensionsUsed":[
		"KHR_materials_specular",
		"KHR_materials_ior"
	],
	"scene":0,
	"scenes":[
		{
			"name":"Scene",
			"nodes":[
				0,
				1,
				2,
				3,
				4
			]
		}
	],
	"nodes":[
		{
			"mesh":0,
			"name":"Ferrari_Testarossa_Plane.008",
			"rotation":[
				0.70710688829422,
				0,
				0,
				0.7071066498756409
			]
		},
		{
			"mesh":1,
			"name":"FL_Circle.002",
			"rotation":[
				0.70710688829422,
				0,
				0,
				0.7071066498756409
			]
		},
		{
			"mesh":2,
			"name":"FR_Circle.003",
			"rotation":[
				0.70710688829422,
				0,
				0,
				0.7071066498756409
			]
		},
		{
			"mesh":3,
			"name":"RL_Circle.002",
			"rotation":[
				0.70710688829422,
				0,
				0,
				0.7071066498756409
			]
		},
		{
			"mesh":4,
			"name":"RR_Circle.003",
			"rotation":[
				0.70710688829422,
				0,
				0,
				0.7071066498756409
			]
		}
	],
	"materials":[
		{
			"doubleSided":true,
			"extensions":{
				"KHR_materials_specular":{
					"specularColorFactor":[
						0,
						0,
						0
					]
				},
				"KHR_materials_ior":{
					"ior":1.4500000476837158
				}
			},
			"name":"Body",
			"pbrMetallicRoughness":{
				"baseColorFactor":[
					0.800000011920929,
					0.800000011920929,
					0.800000011920929,
					1
				],
				"metallicFactor":0
			}
		},
		{
			"doubleSided":true,
			"extensions":{
				"KHR_materials_specular":{
					"specularColorFactor":[
						0,
						0,
						0
					]
				},
				"KHR_materials_ior":{
					"ior":1.4500000476837158
				}
			},
			"name":"Wipers",
			"pbrMetallicRoughness":{
				"baseColorFactor":[
					0.800000011920929,
					0.800000011920929,
					0.800000011920929,
					1
				],
				"metallicFactor":0
			}
		},
		{
			"doubleSided":true,
			"extensions":{
				"KHR_materials_specular":{
					"specularColorFactor":[
						0,
						0,
						0
					]
				},
				"KHR_materials_ior":{
					"ior":1.4500000476837158
				}
			},
			"name":"Black",
			"pbrMetallicRoughness":{
				"baseColorFactor":[
					0.800000011920929,
					0.800000011920929,
					0.800000011920929,
					1
				],
				"metallicFactor":0
			}
		},
		{
			"doubleSided":true,
			"extensions":{
				"KHR_materials_specular":{
					"specularColorFactor":[
						0,
						0,
						0
					]
				},
				"KHR_materials_ior":{
					"ior":1.4500000476837158
				}
			},
			"name":"Material.004",
			"pbrMetallicRoughness":{
				"baseColorFactor":[
					0.800000011920929,
					0.800000011920929,
					0.800000011920929,
					1
				],
				"metallicFactor":0
			}
		},
		{
			"doubleSided":true,
			"extensions":{
				"KHR_materials_specular":{
					"specularColorFactor":[
						0,
						0,
						0
					]
				},
				"KHR_materials_ior":{
					"ior":1.4500000476837158
				}
			},
			"name":"Interior",
			"pbrMetallicRoughness":{
				"baseColorFactor":[
					0.800000011920929,
					0.800000011920929,
					0.800000011920929,
					1
				],
				"metallicFactor":0
			}
		},
		{
			"doubleSided":true,
			"extensions":{
				"KHR_materials_specular":{
					"specularColorFactor":[
						0,
						0,
						0
					]
				},
				"KHR_materials_ior":{
					"ior":1.4500000476837158
				}
			},
			"name":"Material.001",
			"pbrMetallicRoughness":{
				"baseColorFactor":[
					0.800000011920929,
					0.800000011920929,
					0.800000011920929,
					1
				],
				"metallicFactor":0
			}
		},
		{
			"doubleSided":true,
			"extensions":{
				"KHR_materials_specular":{
					"specularColorFactor":[
						0,
						0,
						0
					]
				},
				"KHR_materials_ior":{
					"ior":1.4500000476837158
				}
			},
			"name":"Glass",
			"pbrMetallicRoughness":{
				"baseColorFactor":[
					0.800000011920929,
					0.800000011920929,
					0.800000011920929,
					1
				],
				"metallicFactor":0
			}
		},
		{
			"doubleSided":true,
			"extensions":{
				"KHR_materials_specular":{
					"specularColorFactor":[
						0,
						0,
						0
					]
				},
				"KHR_materials_ior":{
					"ior":1.4500000476837158
				}
			},
			"name":"Material.007",
			"pbrMetallicRoughness":{
				"baseColorFactor":[
					0.800000011920929,
					0.800000011920929,
					0.800000011920929,
					1
				],
				"metallicFactor":0
			}
		},
		{
			"doubleSided":true,
			"extensions":{
				"KHR_materials_specular":{
					"specularColorFactor":[
						0,
						0,
						0
					]
				},
				"KHR_materials_ior":{
					"ior":1.4500000476837158
				}
			},
			"name":"testarossawheel.001",
			"pbrMetallicRoughness":{
				"baseColorFactor":[
					0.800000011920929,
					0.800000011920929,
					0.800000011920929,
					1
				],
				"metallicFactor":0
			}
		},
		{
			"doubleSided":true,
			"extensions":{
				"KHR_materials_specular":{
					"specularColorFactor":[
						0,
						0,
						0
					]
				},
				"KHR_materials_ior":{
					"ior":1.4500000476837158
				}
			},
			"name":"Material.003",
			"pbrMetallicRoughness":{
				"baseColorFactor":[
					0.800000011920929,
					0.800000011920929,
					0.800000011920929,
					1
				],
				"metallicFactor":0
			}
		},
		{
			"doubleSided":true,
			"extensions":{
				"KHR_materials_specular":{
					"specularColorFactor":[
						0,
						0,
						0
					]
				},
				"KHR_materials_ior":{
					"ior":1.4500000476837158
				}
			},
			"name":"testarossawheel",
			"pbrMetallicRoughness":{
				"baseColorFactor":[
					0.800000011920929,
					0.800000011920929,
					0.800000011920929,
					1
				],
				"metallicFactor":0
			}
		},
		{
			"doubleSided":true,
			"extensions":{
				"KHR_materials_specular":{
					"specularColorFactor":[
						0,
						0,
						0
					]
				},
				"KHR_materials_ior":{
					"ior":1.4500000476837158
				}
			},
			"name":"Material.002",
			"pbrMetallicRoughness":{
				"baseColorFactor":[
					0.800000011920929,
					0.800000011920929,
					0.800000011920929,
					1
				],
				"metallicFactor":0
			}
		}
	],
	"meshes":[
		{
			"name":"Ferrari_Testarossa_Plane.008",
			"primitives":[
				{
					"attributes":{
						"POSITION":0,
						"NORMAL":1,
						"TEXCOORD_0":2
					},
					"indices":3,
					"material":0
				},
				{
					"attributes":{
						"POSITION":4,
						"NORMAL":5,
						"TEXCOORD_0":6
					},
					"indices":7,
					"material":1
				},
				{
					"attributes":{
						"POSITION":8,
						"NORMAL":9,
						"TEXCOORD_0":10
					},
					"indices":11,
					"material":2
				},
				{
					"attributes":{
						"POSITION":12,
						"NORMAL":13,
						"TEXCOORD_0":14
					},
					"indices":15,
					"material":3
				},
				{
					"attributes":{
						"POSITION":16,
						"NORMAL":17,
						"TEXCOORD_0":18
					},
					"indices":19,
					"material":4
				},
				{
					"attributes":{
						"POSITION":20,
						"NORMAL":21,
						"TEXCOORD_0":22
					},
					"indices":23,
					"material":5
				},
				{
					"attributes":{
						"POSITION":24,
						"NORMAL":25,
						"TEXCOORD_0":26
					},
					"indices":27,
					"material":6
				},
				{
					"attributes":{
						"POSITION":28,
						"NORMAL":29,
						"TEXCOORD_0":30
					},
					"indices":31,
					"material":7
				}
			]
		},
		{
			"name":"FL_Circle.002",
			"primitives":[
				{
					"attributes":{
						"POSITION":32,
						"NORMAL":33,
						"TEXCOORD_0":34
					},
					"indices":35,
					"material":8
				},
				{
					"attributes":{
						"POSITION":36,
						"NORMAL":37,
						"TEXCOORD_0":38
					},
					"indices":39,
					"material":9
				}
			]
		},
		{
			"name":"FR_Circle.003",
			"primitives":[
				{
					"attributes":{
						"POSITION":40,
						"NORMAL":41,
						"TEXCOORD_0":42
					},
					"indices":43,
					"material":10
				},
				{
					"attributes":{
						"POSITION":44,
						"NORMAL":45,
						"TEXCOORD_0":46
					},
					"indices":47,
					"material":11
				}
			]
		},
		{
			"name":"RL_Circle.002",
			"primitives":[
				{
					"attributes":{
						"POSITION":48,
						"NORMAL":49,
						"TEXCOORD_0":50
					},
					"indices":51,
					"material":8
				},
				{
					"attributes":{
						"POSITION":52,
						"NORMAL":53,
						"TEXCOORD_0":54
					},
					"indices":55,
					"material":9
				}
			]
		},
		{
			"name":"RR_Circle.003",
			"primitives":[
				{
					"attributes":{
						"POSITION":56,
						"NORMAL":57,
						"TEXCOORD_0":58
					},
					"indices":59,
					"material":10
				},
				{
					"attributes":{
						"POSITION":60,
						"NORMAL":61,
						"TEXCOORD_0":62
					},
					"indices":63,
					"material":11
				}
			]
		}
	],
	"accessors":[
		{
			"bufferView":0,
			"componentType":5126,
			"count":6538,
			"max":[
				1.01234769821167,
				2.2307419776916504,
				-0.05811038240790367
			],
			"min":[
				-1.0123498439788818,
				-2.217857837677002,
				-1.033135175704956
			],
			"type":"VEC3"
		},
		{
			"bufferView":1,
			"componentType":5126,
			"count":6538,
			"type":"VEC3"
		},
		{
			"bufferView":2,
			"componentType":5126,
			"count":6538,
			"type":"VEC2"
		},
		{
			"bufferView":3,
			"componentType":5123,
			"count":16383,
			"type":"SCALAR"
		},
		{
			"bufferView":4,
			"componentType":5126,
			"count":206,
			"max":[
				0.6196413636207581,
				1.0259499549865723,
				-0.6789710521697998
			],
			"min":[
				-0.6887477040290833,
				0.6713659763336182,
				-0.7664189338684082
			],
			"type":"VEC3"
		},
		{
			"bufferView":5,
			"componentType":5126,
			"count":206,
			"type":"VEC3"
		},
		{
			"bufferView":6,
			"componentType":5126,
			"count":206,
			"type":"VEC2"
		},
		{
			"bufferView":7,
			"componentType":5123,
			"count":729,
			"type":"SCALAR"
		},
		{
			"bufferView":8,
			"componentType":5126,
			"count":60,
			"max":[
				0.4348960220813751,
				0.5932618975639343,
				-0.6259779334068298
			],
			"min":[
				0.25178098678588867,
				0.5803510546684265,
				-0.6581316590309143
			],
			"type":"VEC3"
		},
		{
			"bufferView":9,
			"componentType":5126,
			"count":60,
			"type":"VEC3"
		},
		{
			"bufferView":10,
			"componentType":5126,
			"count":60,
			"type":"VEC2"
		},
		{
			"bufferView":11,
			"componentType":5123,
			"count":66,
			"type":"SCALAR"
		},
		{
			"bufferView":12,
			"componentType":5126,
			"count":167,
			"max":[
				0.7028480172157288,
				2.1811046600341797,
				-0.21740815043449402
			],
			"min":[
				-0.6910567283630371,
				1.48677396774292,
				-0.34654510021209717
			],
			"type":"VEC3"
		},
		{
			"bufferView":13,
			"componentType":5126,
			"count":167,
			"type":"VEC3"
		},
		{
			"bufferView":14,
			"componentType":5126,
			"count":167,
			"type":"VEC2"
		},
		{
			"bufferView":15,
			"componentType":5123,
			"count":567,
			"type":"SCALAR"
		},
		{
			"bufferView":16,
			"componentType":5126,
			"count":7890,
			"max":[
				0.7502273917198181,
				1.136173963546753,
				-0.10771138221025467
			],
			"min":[
				-0.7502253651618958,
				-0.9810032844543457,
				-1.013211965560913
			],
			"type":"VEC3"
		},
		{
			"bufferView":17,
			"componentType":5126,
			"count":7890,
			"type":"VEC3"
		},
		{
			"bufferView":18,
			"componentType":5126,
			"count":7890,
			"type":"VEC2"
		},
		{
			"bufferView":19,
			"componentType":5123,
			"count":20430,
			"type":"SCALAR"
		},
		{
			"bufferView":20,
			"componentType":5126,
			"count":2469,
			"max":[
				0.9518237709999084,
				2.2009449005126953,
				-0.05827661603689194
			],
			"min":[
				-0.9624200463294983,
				-2.1972169876098633,
				-0.9805591702461243
			],
			"type":"VEC3"
		},
		{
			"bufferView":21,
			"componentType":5126,
			"count":2469,
			"type":"VEC3"
		},
		{
			"bufferView":22,
			"componentType":5126,
			"count":2469,
			"type":"VEC2"
		},
		{
			"bufferView":23,
			"componentType":5123,
			"count":4857,
			"type":"SCALAR"
		},
		{
			"bufferView":24,
			"componentType":5126,
			"count":274,
			"max":[
				0.9077439904212952,
				0.9630648493766785,
				-0.4645729959011078
			],
			"min":[
				-0.9077439904212952,
				-2.1545729637145996,
				-0.9850507974624634
			],
			"type":"VEC3"
		},
		{
			"bufferView":25,
			"componentType":5126,
			"count":274,
			"type":"VEC3"
		},
		{
			"bufferView":26,
			"componentType":5126,
			"count":274,
			"type":"VEC2"
		},
		{
			"bufferView":27,
			"componentType":5123,
			"count":720,
			"type":"SCALAR"
		},
		{
			"bufferView":28,
			"componentType":5126,
			"count":65,
			"max":[
				0.9108730554580688,
				-2.0639538764953613,
				-0.42345890402793884
			],
			"min":[
				-0.9108730554580688,
				-2.1478641033172607,
				-0.5189165472984314
			],
			"type":"VEC3"
		},
		{
			"bufferView":29,
			"componentType":5126,
			"count":65,
			"type":"VEC3"
		},
		{
			"bufferView":30,
			"componentType":5126,
			"count":65,
			"type":"VEC2"
		},
		{
			"bufferView":31,
			"componentType":5123,
			"count":114,
			"type":"SCALAR"
		},
		{
			"bufferView":32,
			"componentType":5126,
			"count":570,
			"max":[
				0.8874689936637878,
				1.4571642875671387,
				0.10371115803718567
			],
			"min":[
				0.6022837162017822,
				0.8004641532897949,
				-0.5542421340942383
			],
			"type":"VEC3"
		},
		{
			"bufferView":33,
			"componentType":5126,
			"count":570,
			"type":"VEC3"
		},
		{
			"bufferView":34,
			"componentType":5126,
			"count":570,
			"type":"VEC2"
		},
		{
			"bufferView":35,
			"componentType":5123,
			"count":2451,
			"type":"SCALAR"
		},
		{
			"bufferView":36,
			"componentType":5126,
			"count":1945,
			"max":[
				0.8864083290100098,
				1.338302493095398,
				-0.013112000189721584
			],
			"min":[
				0.6063740253448486,
				0.9184046387672424,
				-0.4356060028076172
			],
			"type":"VEC3"
		},
		{
			"bufferView":37,
			"componentType":5126,
			"count":1945,
			"type":"VEC3"
		},
		{
			"bufferView":38,
			"componentType":5126,
			"count":1945,
			"type":"VEC2"
		},
		{
			"bufferView":39,
			"componentType":5123,
			"count":4800,
			"type":"SCALAR"
		},
		{
			"bufferView":40,
			"componentType":5126,
			"count":570,
			"max":[
				-0.6032736897468567,
				1.4548790454864502,
				0.10371088236570358
			],
			"min":[
				-0.8884478807449341,
				0.7981783151626587,
				-0.5542420148849487
			],
			"type":"VEC3"
		},
		{
			"bufferView":41,
			"componentType":5126,
			"count":570,
			"type":"VEC3"
		},
		{
			"bufferView":42,
			"componentType":5126,
			"count":570,
			"type":"VEC2"
		},
		{
			"bufferView":43,
			"componentType":5123,
			"count":2451,
			"type":"SCALAR"
		},
		{
			"bufferView":44,
			"componentType":5126,
			"count":1906,
			"max":[
				-0.6073639988899231,
				1.3369369506835938,
				-0.013112000189721584
			],
			"min":[
				-0.8873983025550842,
				0.9170399904251099,
				-0.4356060028076172
			],
			"type":"VEC3"
		},
		{
			"bufferView":45,
			"componentType":5126,
			"count":1906,
			"type":"VEC3"
		},
		{
			"bufferView":46,
			"componentType":5126,
			"count":1906,
			"type":"VEC2"
		},
		{
			"bufferView":47,
			"componentType":5123,
			"count":4800,
			"type":"SCALAR"
		},
		{
			"bufferView":48,
			"componentType":5126,
			"count":570,
			"max":[
				0.9744806289672852,
				-1.0851209163665771,
				0.10371126979589462
			],
			"min":[
				0.6892836689949036,
				-1.7418209314346313,
				-0.5542420744895935
			],
			"type":"VEC3"
		},
		{
			"bufferView":49,
			"componentType":5126,
			"count":570,
			"type":"VEC3"
		},
		{
			"bufferView":50,
			"componentType":5126,
			"count":570,
			"type":"VEC2"
		},
		{
			"bufferView":51,
			"componentType":5123,
			"count":2451,
			"type":"SCALAR"
		},
		{
			"bufferView":52,
			"componentType":5126,
			"count":1896,
			"max":[
				0.9734082221984863,
				-1.2039827108383179,
				-0.013112000189721584
			],
			"min":[
				0.69337397813797,
				-1.623880386352539,
				-0.4356060028076172
			],
			"type":"VEC3"
		},
		{
			"bufferView":53,
			"componentType":5126,
			"count":1896,
			"type":"VEC3"
		},
		{
			"bufferView":54,
			"componentType":5126,
			"count":1896,
			"type":"VEC2"
		},
		{
			"bufferView":55,
			"componentType":5123,
			"count":4803,
			"type":"SCALAR"
		},
		{
			"bufferView":56,
			"componentType":5126,
			"count":568,
			"max":[
				-0.6893136501312256,
				-1.087406039237976,
				0.10371116548776627
			],
			"min":[
				-0.9744831919670105,
				-1.7441067695617676,
				-0.5542420148849487
			],
			"type":"VEC3"
		},
		{
			"bufferView":57,
			"componentType":5126,
			"count":568,
			"type":"VEC3"
		},
		{
			"bufferView":58,
			"componentType":5126,
			"count":568,
			"type":"VEC2"
		},
		{
			"bufferView":59,
			"componentType":5123,
			"count":2439,
			"type":"SCALAR"
		},
		{
			"bufferView":60,
			"componentType":5126,
			"count":1984,
			"max":[
				-0.6934040188789368,
				-1.2053481340408325,
				-0.013112000189721584
			],
			"min":[
				-0.9734384417533875,
				-1.6252450942993164,
				-0.4356060028076172
			],
			"type":"VEC3"
		},
		{
			"bufferView":61,
			"componentType":5126,
			"count":1984,
			"type":"VEC3"
		},
		{
			"bufferView":62,
			"componentType":5126,
			"count":1984,
			"type":"VEC2"
		},
		{
			"bufferView":63,
			"componentType":5123,
			"count":4812,
			"type":"SCALAR"
		}
	],
	"bufferViews":[
		{
			"buffer":0,
			"byteLength":78456,
			"byteOffset":0,
			"target":34962
		},
		{
			"buffer":0,
			"byteLength":78456,
			"byteOffset":78456,
			"target":34962
		},
		{
			"buffer":0,
			"byteLength":52304,
			"byteOffset":156912,
			"target":34962
		},
		{
			"buffer":0,
			"byteLength":32766,
			"byteOffset":209216,
			"target":34963
		},
		{
			"buffer":0,
			"byteLength":2472,
			"byteOffset":241984,
			"target":34962
		},
		{
			"buffer":0,
			"byteLength":2472,
			"byteOffset":244456,
			"target":34962
		},
		{
			"buffer":0,
			"byteLength":1648,
			"byteOffset":246928,
			"target":34962
		},
		{
			"buffer":0,
			"byteLength":1458,
			"byteOffset":248576,
			"target":34963
		},
		{
			"buffer":0,
			"byteLength":720,
			"byteOffset":250036,
			"target":34962
		},
		{
			"buffer":0,
			"byteLength":720,
			"byteOffset":250756,
			"target":34962
		},
		{
			"buffer":0,
			"byteLength":480,
			"byteOffset":251476,
			"target":34962
		},
		{
			"buffer":0,
			"byteLength":132,
			"byteOffset":251956,
			"target":34963
		},
		{
			"buffer":0,
			"byteLength":2004,
			"byteOffset":252088,
			"target":34962
		},
		{
			"buffer":0,
			"byteLength":2004,
			"byteOffset":254092,
			"target":34962
		},
		{
			"buffer":0,
			"byteLength":1336,
			"byteOffset":256096,
			"target":34962
		},
		{
			"buffer":0,
			"byteLength":1134,
			"byteOffset":257432,
			"target":34963
		},
		{
			"buffer":0,
			"byteLength":94680,
			"byteOffset":258568,
			"target":34962
		},
		{
			"buffer":0,
			"byteLength":94680,
			"byteOffset":353248,
			"target":34962
		},
		{
			"buffer":0,
			"byteLength":63120,
			"byteOffset":447928,
			"target":34962
		},
		{
			"buffer":0,
			"byteLength":40860,
			"byteOffset":511048,
			"target":34963
		},
		{
			"buffer":0,
			"byteLength":29628,
			"byteOffset":551908,
			"target":34962
		},
		{
			"buffer":0,
			"byteLength":29628,
			"byteOffset":581536,
			"target":34962
		},
		{
			"buffer":0,
			"byteLength":19752,
			"byteOffset":611164,
			"target":34962
		},
		{
			"buffer":0,
			"byteLength":9714,
			"byteOffset":630916,
			"target":34963
		},
		{
			"buffer":0,
			"byteLength":3288,
			"byteOffset":640632,
			"target":34962
		},
		{
			"buffer":0,
			"byteLength":3288,
			"byteOffset":643920,
			"target":34962
		},
		{
			"buffer":0,
			"byteLength":2192,
			"byteOffset":647208,
			"target":34962
		},
		{
			"buffer":0,
			"byteLength":1440,
			"byteOffset":649400,
			"target":34963
		},
		{
			"buffer":0,
			"byteLength":780,
			"byteOffset":650840,
			"target":34962
		},
		{
			"buffer":0,
			"byteLength":780,
			"byteOffset":651620,
			"target":34962
		},
		{
			"buffer":0,
			"byteLength":520,
			"byteOffset":652400,
			"target":34962
		},
		{
			"buffer":0,
			"byteLength":228,
			"byteOffset":652920,
			"target":34963
		},
		{
			"buffer":0,
			"byteLength":6840,
			"byteOffset":653148,
			"target":34962
		},
		{
			"buffer":0,
			"byteLength":6840,
			"byteOffset":659988,
			"target":34962
		},
		{
			"buffer":0,
			"byteLength":4560,
			"byteOffset":666828,
			"target":34962
		},
		{
			"buffer":0,
			"byteLength":4902,
			"byteOffset":671388,
			"target":34963
		},
		{
			"buffer":0,
			"byteLength":23340,
			"byteOffset":676292,
			"target":34962
		},
		{
			"buffer":0,
			"byteLength":23340,
			"byteOffset":699632,
			"target":34962
		},
		{
			"buffer":0,
			"byteLength":15560,
			"byteOffset":722972,
			"target":34962
		},
		{
			"buffer":0,
			"byteLength":9600,
			"byteOffset":738532,
			"target":34963
		},
		{
			"buffer":0,
			"byteLength":6840,
			"byteOffset":748132,
			"target":34962
		},
		{
			"buffer":0,
			"byteLength":6840,
			"byteOffset":754972,
			"target":34962
		},
		{
			"buffer":0,
			"byteLength":4560,
			"byteOffset":761812,
			"target":34962
		},
		{
			"buffer":0,
			"byteLength":4902,
			"byteOffset":766372,
			"target":34963
		},
		{
			"buffer":0,
			"byteLength":22872,
			"byteOffset":771276,
			"target":34962
		},
		{
			"buffer":0,
			"byteLength":22872,
			"byteOffset":794148,
			"target":34962
		},
		{
			"buffer":0,
			"byteLength":15248,
			"byteOffset":817020,
			"target":34962
		},
		{
			"buffer":0,
			"byteLength":9600,
			"byteOffset":832268,
			"target":34963
		},
		{
			"buffer":0,
			"byteLength":6840,
			"byteOffset":841868,
			"target":34962
		},
		{
			"buffer":0,
			"byteLength":6840,
			"byteOffset":848708,
			"target":34962
		},
		{
			"buffer":0,
			"byteLength":4560,
			"byteOffset":855548,
			"target":34962
		},
		{
			"buffer":0,
			"byteLength":4902,
			"byteOffset":860108,
			"target":34963
		},
		{
			"buffer":0,
			"byteLength":22752,
			"byteOffset":865012,
			"target":34962
		},
		{
			"buffer":0,
			"byteLength":22752,
			"byteOffset":887764,
			"target":34962
		},
		{
			"buffer":0,
			"byteLength":15168,
			"byteOffset":910516,
			"target":34962
		},
		{
			"buffer":0,
			"byteLength":9606,
			"byteOffset":925684,
			"target":34963
		},
		{
			"buffer":0,
			"byteLength":6816,
			"byteOffset":935292,
			"target":34962
		},
		{
			"buffer":0,
			"byteLength":6816,
			"byteOffset":942108,
			"target":34962
		},
		{
			"buffer":0,
			"byteLength":4544,
			"byteOffset":948924,
			"target":34962
		},
		{
			"buffer":0,
			"byteLength":4878,
			"byteOffset":953468,
			"target":34963
		},
		{
			"buffer":0,
			"byteLength":23808,
			"byteOffset":958348,
			"target":34962
		},
		{
			"buffer":0,
			"byteLength":23808,
			"byteOffset":982156,
			"target":34962
		},
		{
			"buffer":0,
			"byteLength":15872,
			"byteOffset":1005964,
			"target":34962
		},
		{
			"buffer":0,
			"byteLength":9624,
			"byteOffset":1021836,
			"target":34963
		}
	],
	"buffers":[
		{
			"byteLength":1031460,
			"uri":"data:application/octet-stream;base64,"
		}
	]
}
