{
	"asset":{
		"generator":"Khronos glTF Blender I/O v3.6.27",
		"version":"2.0"
	},
	"extensionsUsed":[
		"KHR_materials_specular",
		"KHR_materials_ior"
	],
	"scene":0,
	"scenes":[
		{
			"name":"Scene",
			"nodes":[
				0
			]
		}
	],
	"nodes":[
		{
			"mesh":0,
			"name":"Dog",
			"translation":[
				0,
				4,
				0
			]
		}
	],
	"materials":[
		{
			"doubleSided":true,
			"extensions":{
				"KHR_materials_specular":{
					"specularColorFactor":[
						0,
						0,
						0
					]
				},
				"KHR_materials_ior":{
					"ior":1.4500000476837158
				}
			},
			"name":"material_1.002",
			"pbrMetallicRoughness":{
				"baseColorFactor":[
					0.800000011920929,
					0.800000011920929,
					0.800000011920929,
					1
				],
				"metallicFactor":0
			}
		}
	],
	"meshes":[
		{
			"name":"Dog.002",
			"primitives":[
				{
					"attributes":{
						"POSITION":0,
						"NORMAL":1,
						"TEXCOORD_0":2
					},
					"indices":3,
					"material":0
				}
			]
		}
	],
	"accessors":[
		{
			"bufferView":0,
			"componentType":5126,
			"count":17897,
			"max":[
				5.778475284576416,
				22.279085159301758,
				16.863731384277344
			],
			"min":[
				-5.778475284576416,
				-3.7543814182281494,
				-18.25156593322754
			],
			"type":"VEC3"
		},
		{
			"bufferView":1,
			"componentType":5126,
			"count":17897,
			"type":"VEC3"
		},
		{
			"bufferView":2,
			"componentType":5126,
			"count":17897,
			"type":"VEC2"
		},
		{
			"bufferView":3,
			"componentType":5123,
			"count":73191,
			"type":"SCALAR"
		}
	],
	"bufferViews":[
		{
			"buffer":0,
			"byteLength":214764,
			"byteOffset":0,
			"target":34962
		},
		{
			"buffer":0,
			"byteLength":214764,
			"byteOffset":214764,
			"target":34962
		},
		{
			"buffer":0,
			"byteLength":143176,
			"byteOffset":429528,
			"target":34962
		},
		{
			"buffer":0,
			"byteLength":146382,
			"byteOffset":572704,
			"target":34963
		}
	],
	"buffers":[
		{
			"byteLength":719088,
			"uri":"data:application/octet-stream;base64,"
		}
	]
}
