{
	"asset":{
		"generator":"Khronos glTF Blender I/O v3.6.27",
		"version":"2.0"
	},
	"scene":0,
	"scenes":[
		{
			"name":"Scene",
			"nodes":[
				0
			]
		}
	],
	"nodes":[
		{
			"mesh":0,
			"name":"12683_hand_v1_FINAL",
			"rotation":[
				0.5,
				-0.4999999403953552,
				-0.5,
				0.5000000596046448
			],
			"translation":[
				1,
				28,
				0
			]
		}
	],
	"meshes":[
		{
			"name":"12683_hand_v1_FINAL.001",
			"primitives":[
				{
					"attributes":{
						"POSITION":0,
						"NORMAL":1,
						"TEXCOORD_0":2
					},
					"indices":3
				}
			]
		}
	],
	"accessors":[
		{
			"bufferView":0,
			"componentType":5126,
			"count":951,
			"max":[
				27.619443893432617,
				16.82399559020996,
				29.613189697265625
			],
			"min":[
				-42.00895690917969,
				-10.43982219696045,
				-14.86316204071045
			],
			"type":"VEC3"
		},
		{
			"bufferView":1,
			"componentType":5126,
			"count":951,
			"type":"VEC3"
		},
		{
			"bufferView":2,
			"componentType":5126,
			"count":951,
			"type":"VEC2"
		},
		{
			"bufferView":3,
			"componentType":5123,
			"count":3156,
			"type":"SCALAR"
		}
	],
	"bufferViews":[
		{
			"buffer":0,
			"byteLength":11412,
			"byteOffset":0,
			"target":34962
		},
		{
			"buffer":0,
			"byteLength":11412,
			"byteOffset":11412,
			"target":34962
		},
		{
			"buffer":0,
			"byteLength":7608,
			"byteOffset":22824,
			"target":34962
		},
		{
			"buffer":0,
			"byteLength":6312,
			"byteOffset":30432,
			"target":34963
		}
	],
	"buffers":[
		{
			"byteLength":36744,
			"uri":"data:application/octet-stream;base64,"
		}
	]
}
