{
	"asset":{
		"generator":"Khronos glTF Blender I/O v3.6.27",
		"version":"2.0"
	},
	"extensionsUsed":[
		"KHR_materials_specular",
		"KHR_materials_ior"
	],
	"scene":0,
	"scenes":[
		{
			"name":"Scene",
			"nodes":[
				0,
				1,
				2,
				3,
				4
			]
		}
	],
	"nodes":[
		{
			"mesh":0,
			"name":"Ferrari_Testarossa_Plane.008",
			"rotation":[
				0.70710688829422,
				0,
				0,
				0.7071066498756409
			]
		},
		{
			"mesh":1,
			"name":"FL_Circle.002",
			"rotation":[
				0.70710688829422,
				0,
				0,
				0.7071066498756409
			]
		},
		{
			"mesh":2,
			"name":"FR_Circle.003",
			"rotation":[
				0.70710688829422,
				0,
				0,
				0.7071066498756409
			]
		},
		{
			"mesh":3,
			"name":"RL_Circle.002",
			"rotation":[
				0.70710688829422,
				0,
				0,
				0.7071066498756409
			]
		},
		{
			"mesh":4,
			"name":"RR_Circle.003",
			"rotation":[
				0.70710688829422,
				0,
				0,
				0.7071066498756409
			]
		}
	],
	"materials":[
		{
			"doubleSided":true,
			"extensions":{
				"KHR_materials_specular":{
					"specularColorFactor":[
						0,
						0,
						0
					]
				},
				"KHR_materials_ior":{
					"ior":1.4500000476837158
				}
			},
			"name":"Body",
			"pbrMetallicRoughness":{
				"baseColorFactor":[
					0.800000011920929,
					0.800000011920929,
					0.800000011920929,
					1
				],
				"metallicFactor":0
			}
		},
		{
			"doubleSided":true,
			"extensions":{
				"KHR_materials_specular":{
					"specularColorFactor":[
						0,
						0,
						0
					]
				},
				"KHR_materials_ior":{
					"ior":1.4500000476837158
				}
			},
			"name":"Wipers",
			"pbrMetallicRoughness":{
				"baseColorFactor":[
					0.800000011920929,
					0.800000011920929,
					0.800000011920929,
					1
				],
				"metallicFactor":0
			}
		},
		{
			"doubleSided":true,
			"extensions":{
				"KHR_materials_specular":{
					"specularColorFactor":[
						0,
						0,
						0
					]
				},
				"KHR_materials_ior":{
					"ior":1.4500000476837158
				}
			},
			"name":"Black",
			"pbrMetallicRoughness":{
				"baseColorFactor":[
					0.800000011920929,
					0.800000011920929,
					0.800000011920929,
					1
				],
				"metallicFactor":0
			}
		},
		{
			"doubleSided":true,
			"extensions":{
				"KHR_materials_specular":{
					"specularColorFactor":[
						0,
						0,
						0
					]
				},
				"KHR_materials_ior":{
					"ior":1.4500000476837158
				}
			},
			"name":"Material.004",
			"pbrMetallicRoughness":{
				"baseColorFactor":[
					0.800000011920929,
					0.800000011920929,
					0.800000011920929,
					1
				],
				"metallicFactor":0
			}
		},
		{
			"doubleSided":true,
			"extensions":{
				"KHR_materials_specular":{
					"specularColorFactor":[
						0,
						0,
						0
					]
				},
				"KHR_materials_ior":{
					"ior":1.4500000476837158
				}
			},
			"name":"Interior",
			"pbrMetallicRoughness":{
				"baseColorFactor":[
					0.800000011920929,
					0.800000011920929,
					0.800000011920929,
					1
				],
				"metallicFactor":0
			}
		},
		{
			"doubleSided":true,
			"extensions":{
				"KHR_materials_specular":{
					"specularColorFactor":[
						0,
						0,
						0
					]
				},
				"KHR_materials_ior":{
					"ior":1.4500000476837158
				}
			},
			"name":"Material.001",
			"pbrMetallicRoughness":{
				"baseColorFactor":[
					0.800000011920929,
					0.800000011920929,
					0.800000011920929,
					1
				],
				"metallicFactor":0
			}
		},
		{
			"doubleSided":true,
			"extensions":{
				"KHR_materials_specular":{
					"specularColorFactor":[
						0,
						0,
						0
					]
				},
				"KHR_materials_ior":{
					"ior":1.4500000476837158
				}
			},
			"name":"Glass",
			"pbrMetallicRoughness":{
				"baseColorFactor":[
					0.800000011920929,
					0.800000011920929,
					0.800000011920929,
					1
				],
				"metallicFactor":0
			}
		},
		{
			"doubleSided":true,
			"extensions":{
				"KHR_materials_specular":{
					"specularColorFactor":[
						0,
						0,
						0
					]
				},
				"KHR_materials_ior":{
					"ior":1.4500000476837158
				}
			},
			"name":"Material.007",
			"pbrMetallicRoughness":{
				"baseColorFactor":[
					0.800000011920929,
					0.800000011920929,
					0.800000011920929,
					1
				],
				"metallicFactor":0
			}
		},
		{
			"doubleSided":true,
			"extensions":{
				"KHR_materials_specular":{
					"specularColorFactor":[
						0,
						0,
						0
					]
				},
				"KHR_materials_ior":{
					"ior":1.4500000476837158
				}
			},
			"name":"testarossawheel.001",
			"pbrMetallicRoughness":{
				"baseColorFactor":[
					0.800000011920929,
					0.800000011920929,
					0.800000011920929,
					1
				],
				"metallicFactor":0
			}
		},
		{
			"doubleSided":true,
			"extensions":{
				"KHR_materials_specular":{
					"specularColorFactor":[
						0,
						0,
						0
					]
				},
				"KHR_materials_ior":{
					"ior":1.4500000476837158
				}
			},
			"name":"Material.003",
			"pbrMetallicRoughness":{
				"baseColorFactor":[
					0.800000011920929,
					0.800000011920929,
					0.800000011920929,
					1
				],
				"metallicFactor":0
			}
		},
		{
			"doubleSided":true,
			"extensions":{
				"KHR_materials_specular":{
					"specularColorFactor":[
						0,
						0,
						0
					]
				},
				"KHR_materials_ior":{
					"ior":1.4500000476837158
				}
			},
			"name":"testarossawheel",
			"pbrMetallicRoughness":{
				"baseColorFactor":[
					0.800000011920929,
					0.800000011920929,
					0.800000011920929,
					1
				],
				"metallicFactor":0
			}
		},
		{
			"doubleSided":true,
			"extensions":{
				"KHR_materials_specular":{
					"specularColorFactor":[
						0,
						0,
						0
					]
				},
				"KHR_materials_ior":{
					"ior":1.4500000476837158
				}
			},
			"name":"Material.002",
			"pbrMetallicRoughness":{
				"baseColorFactor":[
					0.800000011920929,
					0.800000011920929,
					0.800000011920929,
					1
				],
				"metallicFactor":0
			}
		}
	],
	"meshes":[
		{
			"name":"Ferrari_Testarossa_Plane.008",
			"primitives":[
				{
					"attributes":{
						"POSITION":0,
						"NORMAL":1,
						"TEXCOORD_0":2
					},
					"indices":3,
					"material":0
				},
				{
					"attributes":{
						"POSITION":4,
						"NORMAL":5,
						"TEXCOORD_0":6
					},
					"indices":7,
					"material":1
				},
				{
					"attributes":{
						"POSITION":8,
						"NORMAL":9,
						"TEXCOORD_0":10
					},
					"indices":11,
					"material":2
				},
				{
					"attributes":{
						"POSITION":12,
						"NORMAL":13,
						"TEXCOORD_0":14
					},
					"indices":15,
					"material":3
				},
				{
					"attributes":{
						"POSITION":16,
						"NORMAL":17,
						"TEXCOORD_0":18
					},
					"indices":19,
					"material":4
				},
				{
					"attributes":{
						"POSITION":20,
						"NORMAL":21,
						"TEXCOORD_0":22
					},
					"indices":23,
					"material":5
				},
				{
					"attributes":{
						"POSITION":24,
						"NORMAL":25,
						"TEXCOORD_0":26
					},
					"indices":27,
					"material":6
				},
				{
					"attributes":{
						"POSITION":28,
						"NORMAL":29,
						"TEXCOORD_0":30
					},
					"indices":31,
					"material":7
				}
			]
		},
		{
			"name":"FL_Circle.002",
			"primitives":[
				{
					"attributes":{
						"POSITION":32,
						"NORMAL":33,
						"TEXCOORD_0":34
					},
					"indices":35,
					"material":8
				},
				{
					"attributes":{
						"POSITION":36,
						"NORMAL":37,
						"TEXCOORD_0":38
					},
					"indices":39,
					"material":9
				}
			]
		},
		{
			"name":"FR_Circle.003",
			"primitives":[
				{
					"attributes":{
						"POSITION":40,
						"NORMAL":41,
						"TEXCOORD_0":42
					},
					"indices":43,
					"material":10
				},
				{
					"attributes":{
						"POSITION":44,
						"NORMAL":45,
						"TEXCOORD_0":46
					},
					"indices":47,
					"material":11
				}
			]
		},
		{
			"name":"RL_Circle.002",
			"primitives":[
				{
					"attributes":{
						"POSITION":48,
						"NORMAL":49,
						"TEXCOORD_0":50
					},
					"indices":51,
					"material":8
				},
				{
					"attributes":{
						"POSITION":52,
						"NORMAL":53,
						"TEXCOORD_0":54
					},
					"indices":55,
					"material":9
				}
			]
		},
		{
			"name":"RR_Circle.003",
			"primitives":[
				{
					"attributes":{
						"POSITION":56,
						"NORMAL":57,
						"TEXCOORD_0":58
					},
					"indices":59,
					"material":10
				},
				{
					"attributes":{
						"POSITION":60,
						"NORMAL":61,
						"TEXCOORD_0":62
					},
					"indices":63,
					"material":11
				}
			]
		}
	],
	"accessors":[
		{
			"bufferView":0,
			"componentType":5126,
			"count":2019,
			"max":[
				1.010882019996643,
				2.234760046005249,
				-0.05826553702354431
			],
			"min":[
				-1.0108850002288818,
				-2.2148656845092773,
				-1.0323864221572876
			],
			"type":"VEC3"
		},
		{
			"bufferView":1,
			"componentType":5126,
			"count":2019,
			"type":"VEC3"
		},
		{
			"bufferView":2,
			"componentType":5126,
			"count":2019,
			"type":"VEC2"
		},
		{
			"bufferView":3,
			"componentType":5123,
			"count":3885,
			"type":"SCALAR"
		},
		{
			"bufferView":4,
			"componentType":5126,
			"count":21,
			"max":[
				0.6116936802864075,
				1.0145395994186401,
				-0.6920194625854492
			],
			"min":[
				-0.49475085735321045,
				0.7761003375053406,
				-0.7610530257225037
			],
			"type":"VEC3"
		},
		{
			"bufferView":5,
			"componentType":5126,
			"count":21,
			"type":"VEC3"
		},
		{
			"bufferView":6,
			"componentType":5126,
			"count":21,
			"type":"VEC2"
		},
		{
			"bufferView":7,
			"componentType":5123,
			"count":57,
			"type":"SCALAR"
		},
		{
			"bufferView":8,
			"componentType":5126,
			"count":6,
			"max":[
				0.2526719868183136,
				0.5817300081253052,
				-0.6260210275650024
			],
			"min":[
				0.25178098678588867,
				0.5805429816246033,
				-0.6264529824256897
			],
			"type":"VEC3"
		},
		{
			"bufferView":9,
			"componentType":5126,
			"count":6,
			"type":"VEC3"
		},
		{
			"bufferView":10,
			"componentType":5126,
			"count":6,
			"type":"VEC2"
		},
		{
			"bufferView":11,
			"componentType":5123,
			"count":6,
			"type":"SCALAR"
		},
		{
			"bufferView":12,
			"componentType":5126,
			"count":54,
			"max":[
				0.7028480172157288,
				2.181652545928955,
				-0.21742111444473267
			],
			"min":[
				-0.691853404045105,
				1.48677396774292,
				-0.342339426279068
			],
			"type":"VEC3"
		},
		{
			"bufferView":13,
			"componentType":5126,
			"count":54,
			"type":"VEC3"
		},
		{
			"bufferView":14,
			"componentType":5126,
			"count":54,
			"type":"VEC2"
		},
		{
			"bufferView":15,
			"componentType":5123,
			"count":135,
			"type":"SCALAR"
		},
		{
			"bufferView":16,
			"componentType":5126,
			"count":1955,
			"max":[
				0.7462315559387207,
				1.136173963546753,
				-0.10678987205028534
			],
			"min":[
				-0.7505146265029907,
				-0.9778890013694763,
				-1.0152257680892944
			],
			"type":"VEC3"
		},
		{
			"bufferView":17,
			"componentType":5126,
			"count":1955,
			"type":"VEC3"
		},
		{
			"bufferView":18,
			"componentType":5126,
			"count":1955,
			"type":"VEC2"
		},
		{
			"bufferView":19,
			"componentType":5123,
			"count":4041,
			"type":"SCALAR"
		},
		{
			"bufferView":20,
			"componentType":5126,
			"count":626,
			"max":[
				0.9518237709999084,
				2.204277753829956,
				-0.05827661603689194
			],
			"min":[
				-0.9518237709999084,
				-2.2012031078338623,
				-0.9805110096931458
			],
			"type":"VEC3"
		},
		{
			"bufferView":21,
			"componentType":5126,
			"count":626,
			"type":"VEC3"
		},
		{
			"bufferView":22,
			"componentType":5126,
			"count":626,
			"type":"VEC2"
		},
		{
			"bufferView":23,
			"componentType":5123,
			"count":951,
			"type":"SCALAR"
		},
		{
			"bufferView":24,
			"componentType":5126,
			"count":154,
			"max":[
				0.9242095351219177,
				0.9649063348770142,
				-0.5188836455345154
			],
			"min":[
				-0.9233843684196472,
				-2.1213386058807373,
				-0.9833800196647644
			],
			"type":"VEC3"
		},
		{
			"bufferView":25,
			"componentType":5126,
			"count":154,
			"type":"VEC3"
		},
		{
			"bufferView":26,
			"componentType":5126,
			"count":154,
			"type":"VEC2"
		},
		{
			"bufferView":27,
			"componentType":5123,
			"count":243,
			"type":"SCALAR"
		},
		{
			"bufferView":28,
			"componentType":5126,
			"count":11,
			"max":[
				0.9229522347450256,
				-2.063994884490967,
				-0.42345890402793884
			],
			"min":[
				-0.9229522347450256,
				-2.12312650680542,
				-0.5192225575447083
			],
			"type":"VEC3"
		},
		{
			"bufferView":29,
			"componentType":5126,
			"count":11,
			"type":"VEC3"
		},
		{
			"bufferView":30,
			"componentType":5126,
			"count":11,
			"type":"VEC2"
		},
		{
			"bufferView":31,
			"componentType":5123,
			"count":21,
			"type":"SCALAR"
		},
		{
			"bufferView":32,
			"componentType":5126,
			"count":179,
			"max":[
				0.8913154602050781,
				1.4551416635513306,
				0.0994657427072525
			],
			"min":[
				0.5999941825866699,
				0.8020168542861938,
				-0.5552194714546204
			],
			"type":"VEC3"
		},
		{
			"bufferView":33,
			"componentType":5126,
			"count":179,
			"type":"VEC3"
		},
		{
			"bufferView":34,
			"componentType":5126,
			"count":179,
			"type":"VEC2"
		},
		{
			"bufferView":35,
			"componentType":5123,
			"count":567,
			"type":"SCALAR"
		},
		{
			"bufferView":36,
			"componentType":5126,
			"count":499,
			"max":[
				0.8885985016822815,
				1.343461513519287,
				-0.014117966406047344
			],
			"min":[
				0.6082419753074646,
				0.9144886136054993,
				-0.44158339500427246
			],
			"type":"VEC3"
		},
		{
			"bufferView":37,
			"componentType":5126,
			"count":499,
			"type":"VEC3"
		},
		{
			"bufferView":38,
			"componentType":5126,
			"count":499,
			"type":"VEC2"
		},
		{
			"bufferView":39,
			"componentType":5123,
			"count":978,
			"type":"SCALAR"
		},
		{
			"bufferView":40,
			"componentType":5126,
			"count":180,
			"max":[
				-0.6007395386695862,
				1.4596518278121948,
				0.10170914977788925
			],
			"min":[
				-0.8897600173950195,
				0.7994571924209595,
				-0.5548208355903625
			],
			"type":"VEC3"
		},
		{
			"bufferView":41,
			"componentType":5126,
			"count":180,
			"type":"VEC3"
		},
		{
			"bufferView":42,
			"componentType":5126,
			"count":180,
			"type":"VEC2"
		},
		{
			"bufferView":43,
			"componentType":5123,
			"count":576,
			"type":"SCALAR"
		},
		{
			"bufferView":44,
			"componentType":5126,
			"count":468,
			"max":[
				-0.6092320084571838,
				1.339997410774231,
				-0.01128049660474062
			],
			"min":[
				-0.8894148468971252,
				0.9075866937637329,
				-0.43417948484420776
			],
			"type":"VEC3"
		},
		{
			"bufferView":45,
			"componentType":5126,
			"count":468,
			"type":"VEC3"
		},
		{
			"bufferView":46,
			"componentType":5126,
			"count":468,
			"type":"VEC2"
		},
		{
			"bufferView":47,
			"componentType":5123,
			"count":969,
			"type":"SCALAR"
		},
		{
			"bufferView":48,
			"componentType":5126,
			"count":175,
			"max":[
				0.9759334325790405,
				-1.0876336097717285,
				0.10311540216207504
			],
			"min":[
				0.6870208978652954,
				-1.748376488685608,
				-0.5555058717727661
			],
			"type":"VEC3"
		},
		{
			"bufferView":49,
			"componentType":5126,
			"count":175,
			"type":"VEC3"
		},
		{
			"bufferView":50,
			"componentType":5126,
			"count":175,
			"type":"VEC2"
		},
		{
			"bufferView":51,
			"componentType":5123,
			"count":558,
			"type":"SCALAR"
		},
		{
			"bufferView":52,
			"componentType":5126,
			"count":479,
			"max":[
				0.9756938219070435,
				-1.2007852792739868,
				-0.011742477305233479
			],
			"min":[
				0.6952419877052307,
				-1.6320561170578003,
				-0.4402691721916199
			],
			"type":"VEC3"
		},
		{
			"bufferView":53,
			"componentType":5126,
			"count":479,
			"type":"VEC3"
		},
		{
			"bufferView":54,
			"componentType":5126,
			"count":479,
			"type":"VEC2"
		},
		{
			"bufferView":55,
			"componentType":5123,
			"count":987,
			"type":"SCALAR"
		},
		{
			"bufferView":56,
			"componentType":5126,
			"count":180,
			"max":[
				-0.6867185831069946,
				-1.0921159982681274,
				0.09997390955686569
			],
			"min":[
				-0.9785681366920471,
				-1.7416462898254395,
				-0.5506417751312256
			],
			"type":"VEC3"
		},
		{
			"bufferView":57,
			"componentType":5126,
			"count":180,
			"type":"VEC3"
		},
		{
			"bufferView":58,
			"componentType":5126,
			"count":180,
			"type":"VEC2"
		},
		{
			"bufferView":59,
			"componentType":5123,
			"count":570,
			"type":"SCALAR"
		},
		{
			"bufferView":60,
			"componentType":5126,
			"count":502,
			"max":[
				-0.6952720284461975,
				-1.1978806257247925,
				-0.01625922881066799
			],
			"min":[
				-0.9755458235740662,
				-1.6366183757781982,
				-0.4397240877151489
			],
			"type":"VEC3"
		},
		{
			"bufferView":61,
			"componentType":5126,
			"count":502,
			"type":"VEC3"
		},
		{
			"bufferView":62,
			"componentType":5126,
			"count":502,
			"type":"VEC2"
		},
		{
			"bufferView":63,
			"componentType":5123,
			"count":975,
			"type":"SCALAR"
		}
	],
	"bufferViews":[
		{
			"buffer":0,
			"byteLength":24228,
			"byteOffset":0,
			"target":34962
		},
		{
			"buffer":0,
			"byteLength":24228,
			"byteOffset":24228,
			"target":34962
		},
		{
			"buffer":0,
			"byteLength":16152,
			"byteOffset":48456,
			"target":34962
		},
		{
			"buffer":0,
			"byteLength":7770,
			"byteOffset":64608,
			"target":34963
		},
		{
			"buffer":0,
			"byteLength":252,
			"byteOffset":72380,
			"target":34962
		},
		{
			"buffer":0,
			"byteLength":252,
			"byteOffset":72632,
			"target":34962
		},
		{
			"buffer":0,
			"byteLength":168,
			"byteOffset":72884,
			"target":34962
		},
		{
			"buffer":0,
			"byteLength":114,
			"byteOffset":73052,
			"target":34963
		},
		{
			"buffer":0,
			"byteLength":72,
			"byteOffset":73168,
			"target":34962
		},
		{
			"buffer":0,
			"byteLength":72,
			"byteOffset":73240,
			"target":34962
		},
		{
			"buffer":0,
			"byteLength":48,
			"byteOffset":73312,
			"target":34962
		},
		{
			"buffer":0,
			"byteLength":12,
			"byteOffset":73360,
			"target":34963
		},
		{
			"buffer":0,
			"byteLength":648,
			"byteOffset":73372,
			"target":34962
		},
		{
			"buffer":0,
			"byteLength":648,
			"byteOffset":74020,
			"target":34962
		},
		{
			"buffer":0,
			"byteLength":432,
			"byteOffset":74668,
			"target":34962
		},
		{
			"buffer":0,
			"byteLength":270,
			"byteOffset":75100,
			"target":34963
		},
		{
			"buffer":0,
			"byteLength":23460,
			"byteOffset":75372,
			"target":34962
		},
		{
			"buffer":0,
			"byteLength":23460,
			"byteOffset":98832,
			"target":34962
		},
		{
			"buffer":0,
			"byteLength":15640,
			"byteOffset":122292,
			"target":34962
		},
		{
			"buffer":0,
			"byteLength":8082,
			"byteOffset":137932,
			"target":34963
		},
		{
			"buffer":0,
			"byteLength":7512,
			"byteOffset":146016,
			"target":34962
		},
		{
			"buffer":0,
			"byteLength":7512,
			"byteOffset":153528,
			"target":34962
		},
		{
			"buffer":0,
			"byteLength":5008,
			"byteOffset":161040,
			"target":34962
		},
		{
			"buffer":0,
			"byteLength":1902,
			"byteOffset":166048,
			"target":34963
		},
		{
			"buffer":0,
			"byteLength":1848,
			"byteOffset":167952,
			"target":34962
		},
		{
			"buffer":0,
			"byteLength":1848,
			"byteOffset":169800,
			"target":34962
		},
		{
			"buffer":0,
			"byteLength":1232,
			"byteOffset":171648,
			"target":34962
		},
		{
			"buffer":0,
			"byteLength":486,
			"byteOffset":172880,
			"target":34963
		},
		{
			"buffer":0,
			"byteLength":132,
			"byteOffset":173368,
			"target":34962
		},
		{
			"buffer":0,
			"byteLength":132,
			"byteOffset":173500,
			"target":34962
		},
		{
			"buffer":0,
			"byteLength":88,
			"byteOffset":173632,
			"target":34962
		},
		{
			"buffer":0,
			"byteLength":42,
			"byteOffset":173720,
			"target":34963
		},
		{
			"buffer":0,
			"byteLength":2148,
			"byteOffset":173764,
			"target":34962
		},
		{
			"buffer":0,
			"byteLength":2148,
			"byteOffset":175912,
			"target":34962
		},
		{
			"buffer":0,
			"byteLength":1432,
			"byteOffset":178060,
			"target":34962
		},
		{
			"buffer":0,
			"byteLength":1134,
			"byteOffset":179492,
			"target":34963
		},
		{
			"buffer":0,
			"byteLength":5988,
			"byteOffset":180628,
			"target":34962
		},
		{
			"buffer":0,
			"byteLength":5988,
			"byteOffset":186616,
			"target":34962
		},
		{
			"buffer":0,
			"byteLength":3992,
			"byteOffset":192604,
			"target":34962
		},
		{
			"buffer":0,
			"byteLength":1956,
			"byteOffset":196596,
			"target":34963
		},
		{
			"buffer":0,
			"byteLength":2160,
			"byteOffset":198552,
			"target":34962
		},
		{
			"buffer":0,
			"byteLength":2160,
			"byteOffset":200712,
			"target":34962
		},
		{
			"buffer":0,
			"byteLength":1440,
			"byteOffset":202872,
			"target":34962
		},
		{
			"buffer":0,
			"byteLength":1152,
			"byteOffset":204312,
			"target":34963
		},
		{
			"buffer":0,
			"byteLength":5616,
			"byteOffset":205464,
			"target":34962
		},
		{
			"buffer":0,
			"byteLength":5616,
			"byteOffset":211080,
			"target":34962
		},
		{
			"buffer":0,
			"byteLength":3744,
			"byteOffset":216696,
			"target":34962
		},
		{
			"buffer":0,
			"byteLength":1938,
			"byteOffset":220440,
			"target":34963
		},
		{
			"buffer":0,
			"byteLength":2100,
			"byteOffset":222380,
			"target":34962
		},
		{
			"buffer":0,
			"byteLength":2100,
			"byteOffset":224480,
			"target":34962
		},
		{
			"buffer":0,
			"byteLength":1400,
			"byteOffset":226580,
			"target":34962
		},
		{
			"buffer":0,
			"byteLength":1116,
			"byteOffset":227980,
			"target":34963
		},
		{
			"buffer":0,
			"byteLength":5748,
			"byteOffset":229096,
			"target":34962
		},
		{
			"buffer":0,
			"byteLength":5748,
			"byteOffset":234844,
			"target":34962
		},
		{
			"buffer":0,
			"byteLength":3832,
			"byteOffset":240592,
			"target":34962
		},
		{
			"buffer":0,
			"byteLength":1974,
			"byteOffset":244424,
			"target":34963
		},
		{
			"buffer":0,
			"byteLength":2160,
			"byteOffset":246400,
			"target":34962
		},
		{
			"buffer":0,
			"byteLength":2160,
			"byteOffset":248560,
			"target":34962
		},
		{
			"buffer":0,
			"byteLength":1440,
			"byteOffset":250720,
			"target":34962
		},
		{
			"buffer":0,
			"byteLength":1140,
			"byteOffset":252160,
			"target":34963
		},
		{
			"buffer":0,
			"byteLength":6024,
			"byteOffset":253300,
			"target":34962
		},
		{
			"buffer":0,
			"byteLength":6024,
			"byteOffset":259324,
			"target":34962
		},
		{
			"buffer":0,
			"byteLength":4016,
			"byteOffset":265348,
			"target":34962
		},
		{
			"buffer":0,
			"byteLength":1950,
			"byteOffset":269364,
			"target":34963
		}
	],
	"buffers":[
		{
			"byteLength":271316,
			"uri":"data:application/octet-stream;base64,"
		}
	]
}
