{
	"asset":{
		"generator":"Khronos glTF Blender I/O v3.6.27",
		"version":"2.0"
	},
	"extensionsUsed":[
		"KHR_materials_specular",
		"KHR_materials_ior"
	],
	"scene":0,
	"scenes":[
		{
			"name":"Scene",
			"nodes":[
				0
			]
		}
	],
	"nodes":[
		{
			"mesh":0,
			"name":"Dog",
			"translation":[
				0,
				4,
				0
			]
		}
	],
	"materials":[
		{
			"doubleSided":true,
			"extensions":{
				"KHR_materials_specular":{
					"specularColorFactor":[
						0,
						0,
						0
					]
				},
				"KHR_materials_ior":{
					"ior":1.4500000476837158
				}
			},
			"name":"material_1.004",
			"pbrMetallicRoughness":{
				"baseColorFactor":[
					0.800000011920929,
					0.800000011920929,
					0.800000011920929,
					1
				],
				"metallicFactor":0
			}
		}
	],
	"meshes":[
		{
			"name":"Dog.004",
			"primitives":[
				{
					"attributes":{
						"POSITION":0,
						"NORMAL":1,
						"TEXCOORD_0":2
					},
					"indices":3,
					"material":0
				}
			]
		}
	],
	"accessors":[
		{
			"bufferView":0,
			"componentType":5126,
			"count":7170,
			"max":[
				5.704057693481445,
				22.31899070739746,
				16.875219345092773
			],
			"min":[
				-5.791996955871582,
				-3.8342297077178955,
				-18.243362426757812
			],
			"type":"VEC3"
		},
		{
			"bufferView":1,
			"componentType":5126,
			"count":7170,
			"type":"VEC3"
		},
		{
			"bufferView":2,
			"componentType":5126,
			"count":7170,
			"type":"VEC2"
		},
		{
			"bufferView":3,
			"componentType":5123,
			"count":12957,
			"type":"SCALAR"
		}
	],
	"bufferViews":[
		{
			"buffer":0,
			"byteLength":86040,
			"byteOffset":0,
			"target":34962
		},
		{
			"buffer":0,
			"byteLength":86040,
			"byteOffset":86040,
			"target":34962
		},
		{
			"buffer":0,
			"byteLength":57360,
			"byteOffset":172080,
			"target":34962
		},
		{
			"buffer":0,
			"byteLength":25914,
			"byteOffset":229440,
			"target":34963
		}
	],
	"buffers":[
		{
			"byteLength":255356,
			"uri":"data:application/octet-stream;base64,"
		}
	]
}
